<svg xmlns:xlink="http://www.w3.org/1999/xlink" xmlns="http://www.w3.org/2000/svg" width="147" height="148" viewBox="0 0 147 148" fill="none">
<path d="M136.486 74.0771C135.278 74.0305 134.216 75.0283 134.17 76.2204C134.125 77.3816 135.044 78.4869 136.314 78.5359C137.552 78.5837 138.581 77.6311 138.629 76.3926C138.677 75.1541 137.693 74.1238 136.486 74.0771Z" fill="black"/>
<path d="M136.85 100.432C137.671 98.491 137.204 96.4934 135.42 95.7389C133.608 94.9724 132.375 95.8978 131.044 97.7738L130.961 97.8901C130.12 99.0822 129.521 99.7035 128.651 99.3353C127.909 99.0215 127.508 98.1791 128.021 96.9662C128.661 95.4536 129.784 95.1045 131.011 95.6236L131.268 95.7322L132.053 93.8772L131.739 93.7444C129.398 92.7546 127.422 93.7689 126.39 96.209C125.49 98.3352 125.954 100.382 127.966 101.233C129.778 101.999 131.019 101.094 132.345 99.2323L132.427 99.116C133.205 98.032 133.751 97.2198 134.693 97.6181C135.378 97.9078 135.618 98.7326 135.195 99.7315C134.712 100.873 133.905 101.39 132.763 100.907L132.464 100.78L131.691 102.606L132.119 102.788C134.117 103.632 135.945 102.572 136.85 100.432Z" fill="black"/>
<path d="M130.217 104.546L128.12 103.223C125.683 101.685 123.423 102.421 122.001 104.674C120.471 107.098 121.016 109.109 123.047 110.391L123.361 110.589L124.453 108.86L124.112 108.645C123.077 107.991 122.679 107.026 123.547 105.65C124.399 104.3 125.692 104.109 126.95 104.903L129.204 106.325C130.357 107.053 130.812 108.421 129.993 109.718C129.2 110.976 128.095 111.158 127.047 110.497L126.706 110.282L125.615 112.011L125.929 112.21C127.973 113.5 130.076 113.013 131.54 110.694C133.003 108.375 132.496 105.985 130.217 104.546Z" fill="black"/>
<path d="M119.377 120.344C120.922 121.709 122.876 121.533 124.23 120L127.389 116.424L119.273 109.254L117.919 110.786L120.926 113.443L119.726 114.802L115.396 113.643L113.898 115.338L118.49 116.459C117.88 117.781 118.147 119.257 119.377 120.344ZM124.642 116.726L122.97 118.618C122.323 119.35 121.44 119.437 120.732 118.812C120.023 118.186 120.001 117.298 120.648 116.567L122.32 114.674L124.642 116.726Z" fill="black"/>
<path d="M117.495 121.034L116.041 119.262C114.232 117.058 111.885 116.86 109.741 118.619C107.597 120.379 107.334 122.719 109.142 124.923L110.597 126.696C112.356 128.839 114.753 129.097 116.897 127.338C119.04 125.579 119.255 123.178 117.495 121.034ZM115.973 122.403C116.907 123.541 116.946 124.932 115.737 125.925C114.563 126.888 113.21 126.656 112.237 125.47L110.664 123.554C109.711 122.392 109.595 121.104 110.901 120.032C112.17 118.991 113.408 119.278 114.401 120.487L115.973 122.403Z" fill="black"/>
<path d="M111.141 131.42L105.556 122.123L99.5 125.761L100.457 127.355L104.761 124.77L109.388 132.473L111.141 131.42Z" fill="black"/>
<path d="M103.441 135.858L99.1045 125.917L92.6289 128.742L93.3723 130.446L97.9734 128.439L101.566 136.676L103.441 135.858Z" fill="black"/>
<path d="M90.6195 140.721L90.2642 138.897L87.0401 139.524L85.3228 130.704L83.3153 131.095L85.0327 139.915L81.8087 140.543L82.164 142.368L90.6195 140.721Z" fill="black"/>
<path d="M80.2415 138.336L80.153 136.045C80.043 133.196 78.2922 131.62 75.5209 131.727C72.7497 131.834 71.1255 133.54 71.2355 136.389L71.324 138.68C71.431 141.452 73.1849 143.105 75.9561 142.998C78.7273 142.891 80.3485 141.107 80.2415 138.336ZM78.2015 138.508C78.2583 139.979 77.4492 141.111 75.8856 141.171C74.3683 141.23 73.4304 140.227 73.3712 138.694L73.2755 136.217C73.2175 134.716 73.9039 133.619 75.5915 133.554C77.2325 133.491 78.0455 134.467 78.1058 136.031L78.2015 138.508Z" fill="black"/>
<path d="M63.0739 142.252L65.2684 131.631L61.6269 130.879C58.7745 130.29 56.9656 131.387 56.3668 134.285L55.953 136.288C55.3542 139.186 56.58 140.911 59.4324 141.5L63.0739 142.252ZM61.4473 140.018L59.7783 139.673C58.0638 139.319 57.6235 138.31 57.9433 136.763L58.3822 134.638C58.702 133.091 59.5059 132.339 61.2204 132.693L62.8894 133.038L61.4473 140.018Z" fill="black"/>
<path d="M52.46 139.734L55.9243 129.457L53.9863 128.804L50.522 139.081L52.46 139.734Z" fill="black"/>
<path d="M43.5731 136.481C45.4717 137.395 47.4896 137.025 48.3295 135.28C49.1828 133.507 48.3181 132.231 46.5088 130.81L46.3966 130.722C45.2466 129.824 44.655 129.196 45.0649 128.344C45.4143 127.618 46.275 127.259 47.4617 127.83C48.9415 128.542 49.2359 129.681 48.6581 130.882L48.5371 131.133L50.352 132.006L50.4998 131.699C51.6017 129.41 50.6842 127.386 48.2969 126.237C46.2168 125.236 44.1503 125.6 43.203 127.568C42.3497 129.341 43.1937 130.624 44.989 132.039L45.1012 132.127C46.1462 132.957 46.9312 133.541 46.4877 134.462C46.1652 135.132 45.3297 135.332 44.3525 134.862C43.2356 134.324 42.7588 133.493 43.2963 132.376L43.4374 132.083L41.6505 131.223L41.4489 131.642C40.5082 133.596 41.479 135.473 43.5731 136.481Z" fill="black"/>
<path d="M39.8335 129.698L41.2549 127.667C42.9072 125.306 42.2799 123.014 40.0966 121.486C37.7483 119.842 35.7137 120.29 34.3368 122.258L34.1236 122.563L35.7992 123.735L36.0301 123.405C36.7319 122.402 37.7156 122.051 39.0484 122.983C40.3558 123.898 40.4854 125.199 39.6326 126.418L38.1047 128.601C37.3229 129.718 35.9344 130.108 34.6777 129.229C33.4591 128.376 33.3295 127.264 34.0402 126.249L34.2712 125.918L32.5956 124.746L32.3824 125.051C30.9966 127.031 31.3827 129.154 33.6295 130.727C35.8762 132.299 38.2878 131.906 39.8335 129.698Z" fill="black"/>
<path d="M31.4041 123.576L33.0018 121.932C34.9881 119.887 34.921 117.532 32.9317 115.6C30.9423 113.667 28.5867 113.669 26.6004 115.714L25.0027 117.358C23.0704 119.348 23.0835 121.758 25.0728 123.69C27.0622 125.623 29.4718 125.566 31.4041 123.576ZM29.8724 122.218C28.8468 123.274 27.4691 123.469 26.3467 122.379C25.2575 121.321 25.3362 119.95 26.4049 118.85L28.1322 117.072C29.1793 115.994 30.4465 115.734 31.6578 116.911C32.8359 118.055 32.6899 119.318 31.5996 120.44L29.8724 122.218Z" fill="black"/>
<path d="M20.8506 119.151L27.6816 110.202L25.7574 107.656L15.2833 111.784L16.5537 113.465L25.2172 109.948L25.3293 110.096L19.5802 117.47L20.8506 119.151Z" fill="black"/>
<path d="M14.489 110.437L23.9853 105.199L20.498 98.8771L18.87 99.7751L21.3695 104.306L19.0226 105.601L16.7775 101.531L15.1496 102.429L17.3946 106.499L15.1291 107.749L12.6745 103.299L11.0466 104.197L14.489 110.437Z" fill="black"/>
<path d="M10.195 92.7237C8.26036 93.4331 7.48555 95.2354 8.18962 97.1555L9.83244 101.636L20.0003 97.9074L19.2962 95.9872L15.5287 97.3687L14.9047 95.6668L17.9841 92.4089L17.2053 90.2851L14.0353 93.7908C13.1625 92.6257 11.7369 92.1583 10.195 92.7237ZM10.8739 99.0755L10.0045 96.7045C9.66848 95.7881 10.0118 94.9691 10.8991 94.6438C11.7864 94.3184 12.5777 94.7213 12.9138 95.6377L13.7832 98.0088L10.8739 99.0755Z" fill="black"/>
<path d="M9.57882 75.4223C10.7872 75.4409 11.8256 74.4188 11.844 73.226C11.862 72.0641 10.918 70.9804 9.64771 70.9607C8.4084 70.9416 7.40163 71.9177 7.38249 73.1571C7.36336 74.3964 8.37049 75.4036 9.57882 75.4223Z" fill="black"/>
<path d="M8.68414 48.8558C7.89974 50.8114 8.40421 52.7999 10.2017 53.5209C12.0279 54.2534 13.2429 53.3051 14.5394 51.4046L14.6201 51.2867C15.4383 50.0791 16.0258 49.4467 16.903 49.7986C17.6507 50.0985 18.0671 50.9332 17.5768 52.1555C16.9655 53.6798 15.8488 54.0498 14.6122 53.5538L14.3533 53.45L13.6035 55.3194L13.9199 55.4463C16.2782 56.3922 18.2355 55.341 19.2218 52.8821C20.0812 50.7395 19.5796 48.7021 17.5521 47.8888C15.7259 47.1563 14.5022 48.0845 13.2115 49.9706L13.1309 50.0885C12.3732 51.1868 11.843 52.0091 10.894 51.6284C10.2037 51.3516 9.94845 50.5314 10.3522 49.5248C10.8136 48.3744 11.6111 47.8429 12.7614 48.3043L13.0634 48.4255L13.8017 46.5849L13.3703 46.4118C11.3571 45.6044 9.54929 46.6988 8.68414 48.8558Z" fill="black"/>
<path d="M15.0821 44.8814L17.2071 46.1579C19.6774 47.6419 21.9204 46.8566 23.2926 44.5722C24.7686 42.1152 24.1798 40.1167 22.1212 38.8801L21.8024 38.6886L20.7493 40.4418L21.0946 40.6492C22.1438 41.2795 22.5632 42.2362 21.7254 43.6308C20.9037 44.9987 19.6149 45.2186 18.3399 44.4527L16.0555 43.0804C14.8868 42.3784 14.4012 41.0203 15.1911 39.7055C15.957 38.4305 17.0571 38.2238 18.1196 38.8621L18.4649 39.0695L19.5181 37.3164L19.1993 37.1249C17.1274 35.8803 15.036 36.4133 13.6239 38.7641C12.2117 41.1148 12.7711 43.4932 15.0821 44.8814Z" fill="black"/>
<path d="M25.5211 28.8639C23.9475 27.5336 21.9979 27.752 20.6776 29.3138L17.5969 32.9581L25.8675 39.9497L27.1878 38.3879L24.1233 35.7973L25.2935 34.4129L29.6483 35.4772L31.1087 33.7497L26.4937 32.7292C27.0744 31.3943 26.7753 29.9242 25.5211 28.8639ZM20.337 32.5965L21.9674 30.6679C22.5975 29.9225 23.4791 29.8156 24.2008 30.4258C24.9226 31.0359 24.9639 31.9229 24.3338 32.6684L22.7034 34.597L20.337 32.5965Z" fill="black"/>
<path d="M27.2993 28.1576L28.7924 29.8979C30.6486 32.0616 32.9997 32.2084 35.1045 30.4027C37.2094 28.5969 37.4218 26.2508 35.5655 24.0872L34.0725 22.3469C32.2667 20.242 29.8652 20.0364 27.7604 21.8421C25.6555 23.6479 25.4936 26.0528 27.2993 28.1576ZM28.791 26.7554C27.8326 25.6383 27.7631 24.2486 28.9508 23.2297C30.1031 22.2411 31.4611 22.4438 32.4598 23.6079L34.0739 25.4894C35.0524 26.63 35.1958 27.9155 33.9141 29.0151C32.6677 30.0844 31.424 29.8245 30.4051 28.6369L28.791 26.7554Z" fill="black"/>
<path d="M33.4891 17.5368L39.2774 26.7083L45.252 22.9376L44.2597 21.3653L40.0146 24.0445L35.2185 16.4453L33.4891 17.5368Z" fill="black"/>
<path d="M41.0769 12.9159L45.6344 22.7571L52.0453 19.7883L51.264 18.1012L46.7089 20.2107L42.9327 12.0564L41.0769 12.9159Z" fill="black"/>
<path d="M53.6528 7.75405L54.0498 9.57036L57.2586 8.86898L59.1775 17.6478L61.1755 17.2111L59.2566 8.43226L62.4654 7.73087L62.0684 5.91456L53.6528 7.75405Z" fill="black"/>
<path d="M64.109 9.86021L64.2505 12.1489C64.4264 14.9942 66.2132 16.5292 68.9813 16.3581C71.7493 16.187 73.3335 14.4436 73.1577 11.5983L73.0162 9.30966C72.8451 6.54163 71.0535 4.92933 68.2854 5.10043C65.5174 5.27152 63.9379 7.09219 64.109 9.86021ZM66.1445 9.64126C66.0537 8.1722 66.8364 7.0217 68.3982 6.92516C69.9137 6.83149 70.8746 7.81213 70.9692 9.34304L71.1222 11.8173C71.2149 13.3172 70.554 14.4292 68.8685 14.5334C67.2293 14.6347 66.394 13.6773 66.2975 12.1155L66.1445 9.64126Z" fill="black"/>
<path d="M81.5346 5.54444L79.5434 16.2054L83.1986 16.8881C86.0618 17.4229 87.8493 16.291 88.3927 13.3821L88.7681 11.3717C89.3115 8.46278 88.053 6.76193 85.1898 6.22714L81.5346 5.54444ZM83.2036 7.74752L84.8789 8.06043C86.5999 8.38187 87.0593 9.38184 86.7692 10.9353L86.3709 13.0675C86.0808 14.6209 85.2914 15.3876 83.5704 15.0662L81.8951 14.7533L83.2036 7.74752Z" fill="black"/>
<path d="M92.1745 7.83627L88.9046 18.1769L90.8545 18.7935L94.1244 8.45288L92.1745 7.83627Z" fill="black"/>
<path d="M100.917 10.8019C98.9986 9.93072 96.9895 10.3457 96.1888 12.109C95.3752 13.9006 96.2682 15.1569 98.1087 16.5372L98.2228 16.623C99.3926 17.4945 99.998 18.1097 99.6073 18.9703C99.2742 19.7038 98.4216 20.0824 97.2225 19.5379C95.7272 18.8589 95.4075 17.7268 95.9584 16.5136L96.0737 16.2597L94.2398 15.4269L94.0988 15.7373C93.0483 18.0508 94.0107 20.0533 96.423 21.1487C98.525 22.1032 100.583 21.6934 101.486 19.7043C102.3 17.9127 101.427 16.6487 99.6007 15.2749L99.4866 15.189C98.4233 14.3829 97.6255 13.8164 98.0483 12.8854C98.3558 12.2082 99.1866 11.9899 100.174 12.4383C101.303 12.9508 101.798 13.7712 101.285 14.8998L101.151 15.1961L102.957 16.016L103.149 15.5928C104.046 13.6178 103.033 11.7628 100.917 10.8019Z" fill="black"/>
<path d="M104.909 17.5324L103.533 19.5941C101.933 21.9908 102.61 24.2687 104.827 25.7484C107.21 27.3399 109.235 26.847 110.568 24.8498L110.775 24.5405L109.074 23.405L108.85 23.74C108.17 24.7579 107.195 25.1311 105.842 24.2279C104.514 23.3418 104.356 22.044 105.182 20.807L106.662 18.5906C107.419 17.4567 108.799 17.0365 110.074 17.8882C111.311 18.714 111.465 19.8228 110.777 20.8536L110.553 21.1886L112.254 22.3242L112.461 22.0149C113.803 20.0048 113.37 17.8903 111.089 16.3677C108.809 14.845 106.406 15.2903 104.909 17.5324Z" fill="black"/>
<path d="M113.478 23.4516L111.917 25.1308C109.976 27.2185 110.094 29.5712 112.125 31.4597C114.156 33.3482 116.511 33.2954 118.452 31.2077L120.014 29.5285C121.902 27.4975 121.837 25.0881 119.806 23.1996C117.775 21.3111 115.367 21.4206 113.478 23.4516ZM115.039 24.7761C116.042 23.6982 117.415 23.4729 118.561 24.5385C119.673 25.5724 119.624 26.9445 118.579 28.0678L116.891 29.8832C115.868 30.9838 114.607 31.2708 113.37 30.1208C112.167 29.0025 112.286 27.7375 113.351 26.5915L115.039 24.7761Z" fill="black"/>
<path d="M124.163 27.6709L117.529 36.7673L119.508 39.2709L129.89 34.9144L128.583 33.2615L119.998 36.9678L119.883 36.8219L125.469 29.3238L124.163 27.6709Z" fill="black"/>
<path d="M130.656 36.1304L121.278 41.5777L124.904 47.8208L126.512 46.887L123.912 42.4123L126.23 41.066L128.565 45.0852L130.172 44.1514L127.838 40.1322L130.075 38.8327L132.628 43.227L134.235 42.2931L130.656 36.1304Z" fill="black"/>
<path d="M135.457 54.0119C137.378 53.2663 138.119 51.4498 137.379 49.5433L135.652 45.0946L125.556 49.013L126.296 50.9196L130.037 49.4677L130.693 51.1576L127.675 54.4727L128.494 56.5815L131.597 53.017C132.492 54.1655 133.926 54.6061 135.457 54.0119ZM134.659 47.6739L135.573 50.0282C135.926 50.9381 135.598 51.7634 134.717 52.1053C133.836 52.4473 133.037 52.0593 132.684 51.1493L131.77 48.795L134.659 47.6739Z" fill="black"/>
</svg>