<svg xmlns:xlink="http://www.w3.org/1999/xlink" xmlns="http://www.w3.org/2000/svg" viewBox="0 0 201 195" width="201" height="195" preserveAspectRatio="xMidYMid meet" style="width: 100%; height: 100%; transform: translate3d(0px, 0px, 0px);"><defs><clipPath id="__lottie_element_4"><rect width="201" height="195" x="0" y="0"></rect></clipPath></defs><g clip-path="url(#__lottie_element_4)"><g transform="matrix(1,0,0,1,-1,-10.641998291015625)" opacity="1" style="display: block;"><g opacity="1" transform="matrix(1,0,0,1,108.75,101.44999694824219)"><path stroke-linecap="round" stroke-linejoin="miter" fill-opacity="0" stroke-miterlimit="4" stroke="#FF7914" stroke-opacity="1" stroke-width="2px" d=" M-106.75,-77.05000305175781 C-91.25,-86.21700286865234 -49.349998474121094,-99.44999694824219 -5.75,-79.05000305175781 C37.849998474121094,-58.650001525878906 27.75,-26.216999053955078 17.25,-12.550000190734863 C15.25,-10.050000190734863 9.550000190734863,-6.150000095367432 2.75,-10.550000190734863 C-5.75,-16.049999237060547 0.25,-27.549999237060547 13.25,-32.54999923706055 C23.22599983215332,-36.387001037597656 65.75,-48.04999923706055 86.25,-4.050000190734863 C106.75,39.95000076293945 69.75,92.94999694824219 48.75,99.44999694824219"></path></g></g><g transform="matrix(1,0,0,1,153.64801025390625,156.75799560546875)" opacity="1" style="display: block;"><g opacity="1" transform="matrix(1,0,0,1,16.676000595092773,19.25)"><path stroke-linecap="round" stroke-linejoin="miter" fill-opacity="0" stroke-miterlimit="4" stroke="#FF7914" stroke-opacity="1" stroke-width="2px" d=" M-6.323999881744385,-17.25 C-6.323999881744385,-17.25 -14.517999649047852,14.081000328063965 -14.517999649047852,14.081000328063965 C-14.677000045776367,14.687999725341797 -14.244000434875488,15.288999557495117 -13.618000030517578,15.331999778747559 C-13.618000030517578,15.331999778747559 14.677000045776367,17.25 14.677000045776367,17.25"></path></g></g></g></svg>