<?xml version="1.0" encoding="utf-8"?>
<!-- Generator: Adobe Illustrator 24.2.3, SVG Export Plug-In . SVG Version: 6.00 Build 0)  -->
<svg version="1.1" id="Layer_1" xmlns="http://www.w3.org/2000/svg" xmlns:xlink="http://www.w3.org/1999/xlink" x="0px" y="0px"
	 viewBox="0 0 110 115" style="enable-background:new 0 0 110 115;" xml:space="preserve">
<style type="text/css">
	.st0{fill:#201B19;}
	.st1{fill:#AC9BC6;}
	.st2{display:none;}
	.st3{display:inline;fill:#201B19;}
	.st4{clip-path:url(#SVGID_2_);}
	.st5{opacity:0.4;enable-background:new    ;}
	.st6{fill:#FFF3F0;}
	.st7{fill:#F4DCD9;}
	.st8{fill:#0A0A0A;}
	.st9{fill:#FF881E;}
	.st10{opacity:0.2;fill:#FFFFFF;enable-background:new    ;}
</style>
<g>
	<circle class="st0" cx="54.8" cy="60.4" r="54.7"/>
</g>
<g>
	<circle class="st1" cx="54.8" cy="55.4" r="54.7"/>
	<g>
		<path class="st0" d="M54.8,110.3C24.6,110.3,0,85.7,0,55.5C0,25.3,24.6,0.7,54.8,0.7s54.8,24.6,54.8,54.8
			C109.6,85.7,85.1,110.3,54.8,110.3z M54.8,2.5c-29.2,0-53,23.8-53,53c0,29.2,23.8,53,53,53s53-23.8,53-53
			C107.8,26.3,84.1,2.5,54.8,2.5z"/>
	</g>
</g>
<g class="st2">
	<path class="st3" d="M54.8,110C24.7,110,0.2,85.5,0.2,55.4c0-30.1,24.5-54.7,54.7-54.7s54.7,24.5,54.7,54.7
		C109.5,85.5,85,110,54.8,110z M54.8,2.5C25.7,2.5,2,26.2,2,55.4c0,29.1,23.7,52.9,52.9,52.9s52.9-23.7,52.9-52.9
		C107.7,26.2,84,2.5,54.8,2.5z"/>
</g>
<g>
	<defs>
		<rect id="SVGID_1_" x="18" y="42" width="74" height="27"/>
	</defs>
	<clipPath id="SVGID_2_">
		<use xlink:href="#SVGID_1_"  style="overflow:visible;"/>
	</clipPath>
	<g class="st4">
		<path class="st5" d="M64.7,54.9c0,0,1.4,3.2,0.4,4.5c-1.1,1.3-3.3,1.7-3.3,1.7l-1.9,1.3l1.8-2.7l1.8-2.6L64.7,54.9z"/>
		<path class="st6" d="M52.1,63.6c0,0-2.1,5.9-11.1,5.2c-9-0.7-1.6-4.5-1.6-4.5l8.9-1.9L52.1,63.6z"/>
		<path class="st6" d="M58.3,63.6c0,0,2.1,5.9,11.1,5.2c9-0.7,1.6-4.5,1.6-4.5l-9-1.9L58.3,63.6z"/>
		<path class="st6" d="M81.1,53.5c0,0,3.4,7.9-2.3,11.8c-5.7,3.9-11.2,3.3-11.2,3.3L64.2,66l-4.7-1.9l-0.6-0.7l2.8-2.4l4.4-2
			l6.2-1.9l4.8-1.7l3.4-1.8L81.1,53.5z"/>
		<path class="st7" d="M84.1,62.1c-1.4,5.4-11.7,6.6-15.7,6.7c0,0,15.4-4.8,12.8-15.3l1.5,0.2L84.1,62.1z"/>
		<path class="st8" d="M64.9,59.8l1.6-0.7l6-1.9c0.6,0.6,0.9,1.5,0.9,2.3c0,2.1-1.9,3.8-4.3,3.8C66.9,63.2,65.1,61.7,64.9,59.8z"/>
		<path class="st9" d="M72.5,59.2c0,0.6-0.2,1.2-0.5,1.7c-0.4,0.5-0.9,1-1.4,1.3c-0.6,0.3-1.2,0.5-1.9,0.4c-2,0-3.6-1.4-3.8-3.1
			l1.4-0.7l5.4-1.7C72.2,57.7,72.5,58.4,72.5,59.2z"/>
		<path class="st10" d="M66.4,61.9c0.2,0.1,0.3,0.2,0.5,0.3c0.3-0.7,0.8-1.4,1.3-2C68.2,60.2,67.8,60.4,66.4,61.9z"/>
		<path class="st10" d="M72.3,60.3c-0.1,0.2-0.2,0.4-0.3,0.5c-0.7-0.4-1.4-0.7-2.1-0.9C69.9,60,70.3,59.9,72.3,60.3z"/>
		<path class="st8" d="M66.2,59.6l0.7-0.3l2.6-0.8c0.2,0.3,0.4,0.6,0.4,1c0,0.9-0.8,1.7-1.9,1.7C67.1,61.1,66.3,60.5,66.2,59.6z"/>
		<path class="st8" d="M91.3,42.5c-3.2,6.4-9,11.4-15.5,14.1c-0.7,0.3-1.6,0.6-2.4,0.9c-1.9,0.6-4,1.2-5.9,2
			c-2.1,0.8-4.3,1.8-6.1,3.1c-0.5,0.4-1,0.8-1.3,1.3L60,64v-0.1V64c0,0.1-0.1,0.2-0.1,0.3c-0.6-0.2-1.3-0.5-1.9-0.7h-0.1
			c0-0.1,0-0.1,0-0.2c0.1-0.2,0.2-0.4,0.3-0.6c0.8-1.3,2.4-2.3,3.8-3c0.3-0.1,0.5-0.3,0.8-0.4c2.3-1.1,4.8-1.8,7.2-2.5
			c1.3-0.3,2.9-0.7,4.2-1.1C81.3,53.8,87.7,48.9,91.3,42.5z"/>
		<path class="st8" d="M66.1,68.9c0.3,0.1,1.1,0.1,3.5,0.1c4.2-0.1,8.9-0.1,12.3-3c3.7-3.1,3.5-8.8,1.8-12.9
			c-0.6-1.3-2.6-0.6-2.3,0.8V54l0.1,0.4c0.7,2.8,1.2,6.1-0.3,8.7c-2.2,3.4-7.6,5.1-11.6,5.4c-2.3,0.1-3,0-3.6,0
			C65.7,68.5,65.8,68.9,66.1,68.9z"/>
		<path class="st8" d="M83,52.3c2,1.5,3.2,1.5,3.2,1.5s-1.9-0.3-1.6,5.9c0.1,2.6-1.4-4.5-1.4-4.5S82.5,52,83,52.3z"/>
		<path class="st5" d="M77.2,51.3c-6.3-2.3-10.8,1.9-10.8,1.9L77.2,51.3z"/>
		<path class="st5" d="M56.2,54.8c0,0,0.2,2.1,0,3.6s-1.1,3.1-1.4,4.4c-0.3,1.3-1.2,1-1.2,1l0.5-1.4l1.7-4.5L56.2,54.8z"/>
		<path class="st8" d="M64.6,54.8c-0.5,1.8-1.4,3.5-2.6,5L61.9,60c-0.5,0.6-1.1,1.2-1.6,1.7c-0.5,0.6-0.8,1.3-1.1,2
			c0,0.1,0,0.1-0.1,0.2L58,63.6h-0.1c0.1-0.3,0.2-0.5,0.3-0.8c0.3-0.6,0.7-1.2,1.2-1.8c0.6-0.6,1.2-1,1.8-1.6
			C62.7,58.2,63.8,56.6,64.6,54.8z"/>
		<path class="st8" d="M53.3,63.3c0.1-1.4,1-2.6,1.7-3.8c0.8-1.4,1.1-3.1,1.2-4.8c0,0.8,0,1.5-0.1,2.3c-0.1,1-0.3,1.9-0.7,2.8
			c-0.4,0.8-0.8,1.6-1.1,2.5c-0.1,0.3-0.1,0.6-0.2,0.9c0,0.1,0,0.3-0.1,0.4c-0.1,0.1-0.2,0.2-0.3,0.2c-0.1,0-0.3,0-0.4-0.1
			C53.4,63.5,53.3,63.4,53.3,63.3z"/>
		<path class="st8" d="M76.9,51.3c-0.9-0.1-1.8-0.2-2.7-0.3h-1l-1,0.1c-1.6,0.2-3.2,0.5-4.6,1.3c-0.4,0.2-0.8,0.5-1.1,0.8
			c0,0,0,0-0.1,0c0,0,0,0-0.1,0c0,0,0,0,0-0.1c0,0,0,0,0-0.1c0.7-0.7,1.5-1.3,2.3-1.7c1.1-0.5,2.2-0.9,3.4-1.1
			c0.2,0,0.8-0.1,1.1-0.2c0.2,0,0.8-0.1,1.1-0.1c1-0.1,1.9-0.1,2.9,0c0.1,0,0.2,0,0.3,0.1c0.1,0,0.2,0.1,0.2,0.2
			c0.1,0.1,0.1,0.1,0.1,0.2s0,0.2,0,0.3c0,0.1,0,0.2-0.1,0.3c0,0.1-0.1,0.1-0.2,0.2c-0.1,0.1-0.2,0.1-0.2,0.1
			C77.1,51.3,77,51.3,76.9,51.3z"/>
		<path class="st5" d="M45.3,54.9c0,0-1.4,3.2-0.4,4.5c1.1,1.3,3.3,1.7,3.3,1.7l1.9,1.3l-1.8-2.7l-1.8-2.6L45.3,54.9z"/>
		<path class="st6" d="M28.7,53.5L28.7,53.5l-0.2,0.1c-0.4,1.1-2.8,8,2.3,11.7c5.4,3.8,10.4,3.5,11,3.4l0.8-1l3.2-2.4l3.9-1.6
			l0.7-0.2l0.2-0.1v-0.1c0,0,0-0.1-0.1-0.1L47.9,61l-4.4-2l-6.1-1.9l-4.8-1.7l-3.4-1.8c0,0,0,0-0.1,0L28.7,53.5z"/>
		<path class="st7" d="M25.9,62.1c1.3,4.8,9.7,6.3,14.3,6.6c0.1,0,0.1,0,0.1,0l0.1-0.1c0-0.1,0-0.1,0-0.1l-0.1-0.1
			c-3.6-1.4-13.4-6.1-11.6-14.5v-0.1v-0.1c0,0-0.1,0-0.1-0.1h-0.1l-1,0.2c0,0-0.1,0-0.1,0.1L27.3,54L25.9,62.1
			C25.9,62,25.9,62.1,25.9,62.1z"/>
		<path class="st8" d="M44.9,59.7L43.5,59l-5.9-1.8h-0.1c0,0-0.1,0-0.1,0.1c-0.5,0.6-0.8,1.4-0.8,2.2c0,2.1,1.9,3.8,4.3,3.8
			c2.2,0,3.9-1.4,4.2-3.3v-0.1C45,59.7,45,59.7,44.9,59.7z"/>
		<path class="st9" d="M45.1,59.6c-0.3,1.7-1.8,2.9-3.8,2.9c-1.5,0-2.8-0.8-3.4-1.9c-0.3-0.5-0.4-1-0.4-1.5c0-0.7,0.2-1.4,0.7-1.9
			l0.1-0.1h0.1l5.2,1.7l1.3,0.6l0.1,0.1C45.1,59.5,45.1,59.6,45.1,59.6z"/>
		<path class="st8" d="M50,64.1c0-0.1-0.2-0.4-0.3-0.5c-0.3-0.4-0.7-0.8-1.1-1.1c-1.9-1.4-4-2.3-6.1-3.1c-1.9-0.7-3.9-1.4-5.9-2
			c-0.8-0.2-1.7-0.6-2.4-0.9c-2-0.8-3.9-1.8-5.7-3c-2.8-1.8-5.2-4.1-7.2-6.7c-1-1.4-1.9-2.8-2.6-4.3c3.5,6.3,9.7,10.9,16.5,13.2
			c1.3,0.4,2.9,0.8,4.2,1.1c2.7,0.7,5.3,1.5,7.8,2.7c0.2,0.1,0.5,0.2,0.8,0.4c1.4,0.7,3,1.7,3.8,3c0.1,0.1,0.2,0.6,0.3,0.7L50,64.1z
			"/>
		<path class="st8" d="M28.5,54c-0.8,2.9-1.3,6.4,0.2,9.1c1.7,2.7,4.9,4,8,4.8c2.1,0.5,4.8,0.6,6.3,0.6c0.3,0,0.3,0.4,0.1,0.4
			c-1.6,0-4.4,0-6.4-0.2c-3.7-0.2-7.9-1.2-10.1-4.4c-2.2-3.3-1.9-7.6-0.5-11.1C26.7,51.7,28.9,52.4,28.5,54z"/>
		<path class="st8" d="M27,52.3c-2,1.5-3.2,1.5-3.2,1.5s1.9-0.3,1.6,5.9c-0.1,2.6,1.4-4.5,1.4-4.5S27.4,52,27,52.3z"/>
		<path class="st5" d="M32.8,51.3c7.1-2.3,10.8,1.9,10.8,1.9L32.8,51.3z"/>
		<path class="st8" d="M45.4,54.8c0.8,1.7,1.9,3.3,3.3,4.6c0.6,0.6,1.2,1,1.8,1.6c0.7,0.7,1.2,1.6,1.6,2.5l-1.3,0.3
			c-0.2-0.8-0.6-1.5-1.1-2.2c-0.5-0.6-1.1-1.1-1.6-1.7C46.8,58.5,45.8,56.7,45.4,54.8z"/>
		<path class="st8" d="M32.9,50c2.9-0.1,5.9,0.1,8.5,1.4c0.4,0.2,0.8,0.5,1.2,0.7c0.4,0.3,0.8,0.6,1.1,0.9c0,0,0,0-0.1,0
			c0,0,0,0-0.1,0c-1.8-1.6-4.4-2.1-6.8-2.2c-0.8,0-1.6,0-2.4,0.1L33,51.3c-0.1,0-0.2,0-0.3,0c-0.1,0-0.2-0.1-0.2-0.1
			c-0.1-0.1-0.1-0.2-0.1-0.2c0-0.1-0.1-0.2-0.1-0.3c0-0.1,0-0.2,0-0.3s0.1-0.2,0.1-0.2c0.1-0.1,0.1-0.1,0.2-0.2
			C32.7,50,32.8,50,32.9,50z"/>
		<path class="st10" d="M43.8,61.8c-0.2,0.1-0.3,0.2-0.5,0.3c-0.3-0.7-0.8-1.4-1.3-2C42,60.1,42.5,60.3,43.8,61.8z"/>
		<path class="st10" d="M40.1,59.9c-0.8,0.2-1.5,0.5-2.2,0.8c-0.1-0.2-0.2-0.4-0.2-0.5C39.6,59.8,40.1,59.9,40.1,59.9z"/>
		<path class="st8" d="M43.8,59.6l-0.5-0.2l-2.5-0.8h-0.1c0,0-0.1,0-0.1,0.1c-0.2,0.3-0.3,0.6-0.3,0.9c0,0.9,0.8,1.7,1.9,1.7
			c0.9,0,1.7-0.6,1.8-1.3v-0.1C43.8,59.7,43.8,59.6,43.8,59.6z"/>
		<path class="st8" d="M51.3,65c0.6-0.1,1-0.7,0.8-1.3c-0.1-0.6-0.7-1-1.3-0.8c-0.6,0.1-1,0.7-0.8,1.3C50.1,64.7,50.7,65.1,51.3,65z
			"/>
		<path class="st8" d="M60.1,64.2c0.1-0.6-0.2-1.2-0.8-1.3c-0.6-0.1-1.2,0.2-1.3,0.8c-0.1,0.6,0.2,1.2,0.8,1.3
			C59.3,65.1,59.9,64.8,60.1,64.2z"/>
	</g>
</g>
</svg>
