<?xml version="1.0" encoding="utf-8"?>
<!-- Generator: Adobe Illustrator 24.2.3, SVG Export Plug-In . SVG Version: 6.00 Build 0)  -->
<svg version="1.1" id="Layer_1" xmlns="http://www.w3.org/2000/svg" xmlns:xlink="http://www.w3.org/1999/xlink" x="0px" y="0px"
	 viewBox="0 0 111 115" style="enable-background:new 0 0 111 115;" xml:space="preserve">
<style type="text/css">
	.st0{fill:#201B19;}
	.st1{fill:#FFD110;}
	.st2{fill:#892933;}
	.st3{fill:#480122;}
	.st4{fill:#DB8989;}
	.st5{fill:#FFFFFF;}
	.st6{fill:#D6D2CE;}
	.st7{fill:#0A0A0A;}
	.st8{opacity:0.15;fill:#0A0A0A;enable-background:new    ;}
	.st9{fill:#F7A19B;}
</style>
<g>
	<circle class="st0" cx="55.3" cy="60" r="54.7"/>
	<circle class="st1" cx="55.3" cy="55" r="54.7"/>
	<g>
		<path class="st0" d="M55.3,109.9c-30.2,0-54.8-24.6-54.8-54.8S25.1,0.3,55.3,0.3s54.8,24.6,54.8,54.8S85.6,109.9,55.3,109.9z
			 M55.3,2.2c-29.2,0-53,23.8-53,53s23.8,53,53,53s53-23.8,53-53S84.5,2.2,55.3,2.2z"/>
	</g>
</g>
<path class="st2" d="M55.6,36.2c0,0,17.5-0.9,25,13.5c7.7,14.6-3.1,14.1-3.1,14.1s-32.3,1.6-45.2,0.5c-12.9-1.1,0-18,0-18
	S38.7,37.2,55.6,36.2z"/>
<path class="st3" d="M58.1,46.2c-0.5-0.1-1,0.1-1.2,0.6c-0.2,0.5-0.1,1.3,0.5,2.6c2.1,4.2-0.5,5.1-1.6,5.1c-1.1,0-4-1.1-1.8-4.7
	c0.9-1.5,0.9-2.4,0.5-3c-0.3-0.4-0.8-0.7-1.3-0.5c-5.4,1.2-10.9,6.2-10.5,12c0.4,5.7,6.8,6.5,12.5,6.9c7.6,0,13.5,0,13.5-7.6
	C68.7,51.9,63.3,47.3,58.1,46.2z"/>
<path class="st4" d="M47.3,52c0,0-5.9,3.8-7.2,12.6l10.8,0.3L47.3,52z"/>
<path class="st5" d="M55.7,41.8c0,0.8-0.6,3.6-5.9,3.3c-5.8-0.2-5.5-2.5-5.5-2.5v-4h0L55.7,36v5.6C55.7,41.6,55.7,41.6,55.7,41.8z"
	/>
<path class="st5" d="M44.3,38.3v3.6c0,0.1,0,0.3,0,0.4c-0.1,0.8-0.5,1.5-0.9,2.2l-3.2,4.7l-2.5-2.3l-0.6-0.5
	c-0.9-0.9-1.5-2.1-1.5-3.4L44.3,38.3z"/>
<path class="st5" d="M61.6,45.1c-5.3,0.2-5.9-2.6-5.9-3.3c0-0.1,0-0.2,0-0.2V36l11.4,2.7v4C67.1,42.6,67.4,44.9,61.6,45.1z"/>
<path class="st5" d="M75.7,42.8c0,1.3-0.5,2.5-1.5,3.4l-0.7,0.6l-2.4,2.3L68,44.4c-0.5-0.8-0.9-1.6-0.9-2.5v-3.6L75.7,42.8z"/>
<path class="st6" d="M73.6,46.8l-2.4,2.3L68,44.4c-0.5-0.8-0.9-1.6-0.9-2.5v0.8c0,0,0.3,2.3-5.5,2.5c-5.3,0.2-5.9-2.6-5.9-3.3
	c0,0.8-0.6,3.6-5.9,3.3c-5.8-0.2-5.5-2.5-5.5-2.5v-0.4c-0.1,0.8-0.5,1.5-0.9,2.2l-3.2,4.7l-2.5-2.3c1.7-1.8,4-4.1,5-4.8
	c0.8-0.5,1.3-0.7,1.6-0.7h0c0.3,0,0.4,0.1,0.4,0.1s6.1,2.8,10.8-0.8c0,0,0,0,0.1,0.1c0.8,0.5,5.1,2.8,11.4,0.4
	C67.1,41.1,71,42.8,73.6,46.8z"/>
<path class="st5" d="M80.5,60.9v2.5L73.9,64l-0.1-3v-0.3c0-0.6,0.3-1.2,0.9-1.4c0.5-0.2,1.2-0.4,2.4-0.4c1.8,0,2.7,0.7,3.1,1.1
	C80.4,60.3,80.5,60.6,80.5,60.9z"/>
<path class="st5" d="M38.4,62.8V65l-7-0.7c0,0-0.1-1.3,0.5-2.3c0.5-0.7,1.3-1.2,2.7-1.2c1.1,0,1.9,0.1,2.4,0.3
	c0.5,0.2,0.9,0.5,1.1,1C38.3,62.2,38.4,62.5,38.4,62.8z"/>
<path class="st5" d="M46.2,64.2V65l-7.8-0.4H38v-1.7c0-0.3,0.1-0.5,0.2-0.8c0.1-0.3,0.3-0.5,0.6-0.7c0.5-0.3,1.5-0.6,2.9-0.6
	c1.9,0,3.2,0.3,3.9,1c0.3,0.3,0.4,0.7,0.5,1.1C46.2,63.3,46.2,63.8,46.2,64.2z"/>
<path class="st6" d="M46.1,63c0.1,0.4,0.1,0.9,0.1,1.2V65l-7.8-0.4V65l-7-0.6c0,0-0.1-1.2,0.5-2.1c1.3,0.3,3.2,0.6,6.1,0.8
	c0.1,0,0.3,0,0.4,0C40.5,63.1,43,63.1,46.1,63z"/>
<path class="st6" d="M80.5,61.8v1.8L73.9,64l-0.1-2.1C76.7,61.2,79,61.3,80.5,61.8z"/>
<path class="st7" d="M50.3,45.8c-0.2,0-0.4,0-0.6,0c-2.8-0.1-4.7-0.7-5.6-1.8c-0.5-0.6-0.5-1.2-0.5-1.5v-4H45v4.1
	c0,0.4,0.9,1.5,4.8,1.6c2.1,0.1,3.6-0.3,4.5-1.2c0.7-0.7,0.7-1.6,0.7-1.6v0V36h1.5v5.6c0,0.3,0,1.6-1.1,2.7
	C54.3,45.3,52.6,45.8,50.3,45.8z"/>
<path class="st7" d="M40.4,50.2l-3.7-3.5c-1.1-1-1.7-2.5-1.7-4h1.5c0,1.1,0.5,2.1,1.3,2.9l2.5,2.3l2.7-4c0.5-0.8,0.8-1.5,0.8-2.2
	v-3.5h1.5v3.6c0,0.9-0.4,1.9-1.1,2.9L40.4,50.2z"/>
<path class="st7" d="M61,45.8c-2.3,0-3.9-0.5-5-1.6C55,43.1,55,41.8,55,41.5V36h1.5v5.7c0,0,0,0.9,0.7,1.6c0.8,0.8,2.4,1.2,4.5,1.2
	c3.2-0.1,4.2-0.8,4.6-1.3c0.2-0.2,0.2-0.4,0.2-0.4v-0.1v-4.1h1.5v4c0,0.2,0,0.8-0.5,1.5c-0.9,1.1-2.8,1.7-5.6,1.8
	C61.4,45.8,61.2,45.8,61,45.8z"/>
<path class="st7" d="M71,50.2l-3.6-5.5c-0.7-1-1-2-1.1-2.9v-3.6h1.5v3.6c0,0.6,0.3,1.3,0.8,2.1l2.7,4l2.5-2.3
	c0.8-0.7,1.1-1.5,1.1-2.5h1.5c0,1.5-0.5,2.7-1.6,3.6L71,50.2z"/>
<path class="st7" d="M73.2,64l-0.1-3.3c0-0.9,0.5-1.7,1.3-2.1c0.7-0.3,1.6-0.5,2.7-0.5c1.6,0,2.8,0.5,3.6,1.4l0,0
	c0.3,0.4,0.4,0.9,0.4,1.3v2.5h-1.5v-2.5c0-0.1,0-0.3-0.1-0.5c-0.5-0.5-1.3-0.8-2.5-0.8c-0.9,0-1.6,0.1-2.1,0.3
	c-0.3,0.1-0.4,0.4-0.4,0.8l0.1,3.3L73.2,64z"/>
<path class="st7" d="M39.1,65h-1.5v-2.1c0-0.5-0.3-0.9-0.8-1.1c-0.4-0.1-1-0.3-2.2-0.3c-0.9,0-1.5,0.2-2,0.7c-0.7,0.8-0.6,2-0.6,2.1
	l-1.5,0.1c0-0.1-0.2-1.9,0.9-3.2c0.7-0.8,1.7-1.2,3.1-1.2c1.1,0,2,0.1,2.7,0.3c1.1,0.4,1.8,1.3,1.8,2.5V65L39.1,65z"/>
<path class="st7" d="M47,65h-1.5v-0.8c0-1.3-0.2-1.7-0.4-1.9c-0.4-0.5-1.6-0.7-3.1-0.7c-1.4,0-2.1,0.3-2.4,0.5
	c-0.3,0.1-0.4,0.5-0.4,0.8v1.7h-1.5v-1.7c0-0.8,0.4-1.6,1.1-2c0.7-0.4,1.8-0.7,3.2-0.7c2,0,3.5,0.4,4.2,1.2c0.5,0.6,0.8,1.5,0.8,2.9
	L47,65L47,65z"/>
<path class="st7" d="M55.5,35.2c8.3-0.1,16.8,3.2,22.4,9.5c3.1,3.4,6.7,9.3,6.6,14c-0.1,3.9-3.5,5.9-7,6c-12.3,1-25.6,1.3-38.3,0.9
	c-1.5,0-4.4-0.2-5.9-0.3c-2.1-0.1-4.4-0.3-6-1.9c-2.4-2.5-1.5-6.4-0.4-9.2c1.3-3.3,3.1-6.4,5.3-9.2C38.1,38.3,47,35.7,55.5,35.2z
	 M55.6,37.2l-2.9,0.3c-0.9,0.1-1.9,0.3-2.8,0.4c-0.5,0.1-1.6,0.4-2.1,0.5c-2.9,0.8-5.9,1.9-8.5,3.5c-2.4,1.4-4.7,3.2-6.4,5.4
	c-2.5,3.6-9.6,14.1-2.3,16c1.6,0.4,4.1,0.4,5.7,0.5c9.8,0.5,19.6,0.5,29.4,0c3.9-0.2,7.9-0.4,11.7-0.8c2.8-0.1,5.5-1.5,5.5-4.5
	c0-4.2-3.5-9.7-6.3-12.8C71.3,40.1,63.4,37.1,55.6,37.2z"/>
<path class="st8" d="M56.3,57.8c0,0,6.8-2.2,9.7,2.1c2.9,4.3,3.3,13.5,0.3,17.2c-2.9,3.7-5.7,2.2-5.7,2.2s-13,2.1-14.4-8.2
	c0,0-1.1-15.8,0.4-18.6c0.1-0.1-0.3,5.1-0.2,5.1C48.3,55.9,53.6,56.7,56.3,57.8z"/>
<path class="st9" d="M59.7,52.1c0,0,8.5-2.7,12.1,2.6c3.6,5.3,4.1,16.8,0.4,21.4S61.5,81,61.5,81s-12.7,0.5-14.3-12.3
	c0,0-1.6-12.5-0.5-15.9c0.1-0.2,0.1-0.3,0.1-0.4C49,50.3,56.3,50.7,59.7,52.1z"/>
<path class="st4" d="M61.9,63.7l0-1.7c-0.1-3.4-0.5-6.9-2.1-9.9c-0.1,0-0.2,0-0.2,0c-0.1,0-0.1-0.1-0.3-0.1
	c1.6,3.6,1.4,7.7,0.9,11.5c-0.1,0.5,0.3,0.9,0.8,0.9C61.6,64.5,61.9,64.1,61.9,63.7z"/>
</svg>
