<?xml version="1.0" encoding="utf-8"?>
<!-- Generator: Adobe Illustrator 24.2.3, SVG Export Plug-In . SVG Version: 6.00 Build 0)  -->
<svg version="1.1" id="Layer_1" xmlns="http://www.w3.org/2000/svg" xmlns:xlink="http://www.w3.org/1999/xlink" x="0px" y="0px"
	 viewBox="0 0 110 115" style="enable-background:new 0 0 110 115;" xml:space="preserve">
<style type="text/css">
	.st0{fill:#201B19;}
	.st1{fill:#F99FB7;}
	.st2{clip-path:url(#SVGID_2_);}
	.st3{fill:#FFF3F0;}
	.st4{opacity:0.1;}
	.st5{opacity:0.1;fill:#0A0A0A;enable-background:new    ;}
	.st6{fill:#F4DCD9;}
	.st7{fill:#0A0A0A;}
	.st8{opacity:0.3;fill:#FFFFFF;enable-background:new    ;}
	.st9{opacity:0.3;}
	.st10{opacity:0.3;enable-background:new    ;}
	.st11{fill:#FCF4E3;}
</style>
<g>
	<circle class="st0" cx="54.8" cy="59.6" r="54.7"/>
	<circle class="st1" cx="54.8" cy="55.6" r="54.7"/>
	<g>
		<path class="st0" d="M54.8,110.5c-30.3,0-54.9-24.6-54.9-54.9S24.6,0.7,54.8,0.7s54.9,24.6,54.9,54.9S85.1,110.5,54.8,110.5z
			 M54.8,2.6C25.6,2.6,1.8,26.4,1.8,55.6s23.8,53.1,53.1,53.1s53.1-23.8,53.1-53.1S84.1,2.6,54.8,2.6z"/>
	</g>
</g>
<g>
	<defs>
		<rect id="SVGID_1_" x="21" y="31" width="67.2" height="42.8"/>
	</defs>
	<clipPath id="SVGID_2_">
		<use xlink:href="#SVGID_1_"  style="overflow:visible;"/>
	</clipPath>
	<g class="st2">
		<path class="st3" d="M83,57.9c0,1.7-0.1,3.3-0.4,4.9c-1,5.5-3.9,8.4-7.6,9.6c-1.2,0.4-2.5,0.6-3.8,0.7c-2.1,0.2-4.1-0.1-6-1
			c-1.9-0.8-3.6-2.1-4.8-3.8c-1.5-2-2.5-4.3-2.9-6.8c-0.3-1.2-0.4-2.4-0.4-3.6c-0.1-6.9,2.8-11.6,7-13.8c0.3-0.2,0.2,0,0.5-0.1
			c0.2,0.1,0.3,0.4,0.5,0.5c3.4,2.6,7.3,5.3,11.3,6.8c1.2,0.4,2.4,0.4,3.7,0.7l2,0.5c0.3,0.7,0.2,0.5,0.4,1.3
			c0.1,0.3,0.2,0.6,0.2,0.9c0.1,0.3,0.2,0.7,0.2,1.1C83,56.5,83,57.2,83,57.9z"/>
		<g class="st4">
			<path class="st5" d="M37.6,73.8c-1.5-0.1-2.9-0.4-4.3-0.8c-1.8-0.6-3.3-1.7-4.6-3.1c-1.3-1.4-2.2-3.1-2.6-4.9
				c-0.1-0.2-0.2-0.4-0.2-0.6v-0.1c-0.1-0.5-0.2-1-0.3-1.4c-0.2-0.7-0.4-1.4-0.7-2.1c0.1-0.9,0.2-1.9,0.4-2.8
				c0.2-0.8,0.4-1.6,0.6-2.4l0.1-0.2c0.2-0.3,0.4-0.5,0.7-0.6h0.1c0.3-0.1,0.7,0,0.9,0.2c0.3,0.1,0.4,0.4,0.6,0.6
				c0.1,0.3,0.1,0.6,0.1,0.8c-0.7,3.7-1.2,8.4,0.9,11.7c1.4,1.8,3.1,3.3,5,4.4c0.1,0.1,0.2,0.1,0.3,0.2c0.1,0,0.1,0.1,0.2,0.1
				l0.2,0.1c0.4,0.2,0.8,0.4,1.1,0.5C36.6,73.5,37.1,73.7,37.6,73.8L37.6,73.8z"/>
		</g>
		<path class="st3" d="M52.2,58.3c0,2.7-0.7,5.4-1.9,7.9l-0.1,0.3L50,66.8c-0.2,0.2-0.3,0.5-0.5,0.7c-0.9,1.6-2.1,3-3.7,4.1
			c-1.5,1-3.3,1.7-5.2,1.8c-0.1-0.1-0.5,0.1-0.6,0c-0.1,0.1-0.2,0-0.3,0.1h-0.5h-0.2c-0.2,0-0.4,0-0.7,0c-0.8,0-1.5-0.1-2.2-0.2
			c-5.1-0.9-9.2-4.3-9.8-12c-0.1-0.9-0.1-1.9-0.1-2.9c0-0.3,0-0.5,0-0.8c0.1-1,0.2-1.9,0.5-2.8c0-0.1,0-0.2,0.1-0.3
			c0.1-0.1,0-0.1,0-0.1c0.1-0.2,0.1-0.4,0.2-0.6c0.2-0.6,0.4-1.2,0.7-1.8l1.1-0.2c0.1,0,0.2,0,0.4-0.1c4.7-1.2,9.1-3.2,13.1-6
			c0.6-0.4,1.1-0.8,1.7-1.2c0.1-0.1,0.3-0.2,0.4-0.3c0.3,0.1,0.6,0.2,0.8,0.4C49.4,46.7,52.3,51.5,52.2,58.3z"/>
		<path class="st6" d="M26.9,62.6c1.5,5.3,2.3,9.8,11.6,10.9c0.3,0,1.4-0.4,1.1-0.4c-8,0-11.4-9.8-9-20.1c-0.8,0.2-1.6,0.4-2.4,0.7
			L27,53.7c0,0-0.1,0-0.1,0.1c0,0-0.1,0.1-0.1,0.1l-0.2,7.5C26.7,61.8,26.8,62.2,26.9,62.6L26.9,62.6z"/>
		<path class="st7" d="M49.4,67c0.1-0.1,0.1-0.3,0.2-0.4C49.6,66.7,49.5,66.8,49.4,67z"/>
		<path class="st7" d="M52.7,58.3c0,2.7-0.7,5.4-2,7.8c0,0.1-0.1,0.2-0.1,0.2l-0.1,0.3c-0.1,0.2-0.2,0.5-0.4,0.7
			c-1,1.8-2.4,3.3-4.1,4.5c-1.7,1.1-3.7,1.8-5.7,2c-0.3,0-0.5,0.1-0.7,0.1h-0.7h-0.6c-0.2,0-0.5,0-0.7,0c-1.5-0.1-2.9-0.4-4.3-0.8
			c-1.8-0.6-3.4-1.7-4.6-3.1c-1.3-1.4-2.2-3.1-2.6-4.9c-0.1-0.2-0.1-0.5-0.2-0.7c-0.1-0.5-0.2-1-0.3-1.4c-0.1-0.4-0.1-0.9-0.2-1.3
			c-0.1-1.2-0.2-2.4-0.1-3.6c0-0.8,0.1-1.6,0.3-2.4c0.1-0.3,0.1-0.6,0.2-0.9c0.2-0.6,0.3-1.2,0.6-1.7c0.1-0.2,0.1-0.4,0.2-0.6
			c0.4-0.1,0.8-0.1,1.2-0.2l1.2-0.3v0.1c-0.3,0.6-0.5,1.2-0.7,1.8c0,0.1-0.1,0.3-0.1,0.4c-0.1,0.1-0.2,0.5-0.2,0.8
			c-0.3,1.3-0.5,2.5-0.5,3.8c-0.2,5.2,1.1,11.2,6.4,13.5c0.2,0.1,0.4,0.2,0.6,0.2c1.4,0.5,2.8,0.8,4.3,0.9h0.1c0.2,0,0.4,0,0.5,0
			h0.4h0.2h0.2H40c1.9-0.2,3.8-0.9,5.4-2c1.6-1.1,3-2.5,4-4.2l0,0c0.1-0.1,0.1-0.3,0.2-0.4c0.1-0.1,0.1-0.2,0.2-0.3c0,0,0-0.1,0-0.1
			c1.2-2.4,1.9-5.1,1.9-7.9c0.1-5.5-1.6-11-6.9-13.4c-0.1,0-0.2-0.1-0.3-0.1c-0.2-0.1-0.4-0.1-0.6-0.2h-0.1c0.2-0.1,0.3-0.2,0.4-0.3
			l0.4-0.3l0.2,0.1l0.6,0.3C50.4,47,52.8,52.9,52.7,58.3z"/>
		<path class="st7" d="M48.3,41.4c-0.9,1-1.8,1.9-2.7,2.8c-0.1,0.1-0.2,0.2-0.3,0.3l-0.4,0.3c-4.2,3.7-9.1,6.6-14.4,8.4
			c-0.8,0.3-1.7,0.5-2.5,0.8c-0.4,0.1-0.8,0.2-1.1,0.3c-0.4,0.1-0.7,0.2-1.1,0.2c-1.1,0.2-2.2,0.4-3.4,0.5c-0.2,0-0.3,0-0.5,0
			c-0.2,0-0.3-0.1-0.4-0.2c-0.1-0.1-0.2-0.2-0.3-0.4C21.1,54.3,21,54.2,21,54c0-0.2,0-0.3,0-0.5c0-0.2,0.1-0.3,0.2-0.4
			c0.1-0.1,0.2-0.2,0.4-0.3c0.1-0.1,0.3-0.1,0.5-0.1c1.5-0.1,2.9-0.2,4.4-0.5l1.2-0.2l1.2-0.3c0.1,0,0.2,0,0.4-0.1
			c4.7-1.2,9.1-3.2,13.1-6c0.6-0.4,1.1-0.8,1.7-1.2c0.1-0.1,0.3-0.2,0.4-0.4l0.4-0.3l0.4-0.3c0.9-0.8,1.8-1.6,2.7-2.5
			C48.1,40.8,48.5,41.1,48.3,41.4z"/>
		<path class="st7" d="M44.9,57.1c0.9,0,1.7-0.3,2.4-0.8c0.7-0.5,1.3-1.2,1.6-2c0.3-0.8,0.4-1.7,0.2-2.5C49,51,48.6,50.2,48,49.6
			c-0.6-0.6-1.4-1-2.3-1.2c-0.9-0.2-1.7-0.1-2.5,0.3c-0.8,0.3-1.5,0.9-2,1.6c-0.5,0.7-0.7,1.6-0.7,2.4c0,0.6,0.1,1.2,0.3,1.7
			c0.2,0.5,0.6,1,1,1.4c0.4,0.4,0.9,0.7,1.4,1C43.8,57,44.3,57.1,44.9,57.1L44.9,57.1z"/>
		<path class="st1" d="M45.1,56.4c0.7,0,1.5-0.2,2.1-0.7c0.6-0.4,1.1-1,1.4-1.7c0.3-0.7,0.3-1.4,0.2-2.2c-0.2-0.7-0.5-1.4-1-1.9
			c-0.5-0.5-1.2-0.9-1.9-1c-0.7-0.1-1.5-0.1-2.2,0.2c-0.7,0.3-1.3,0.8-1.7,1.4c-0.4,0.6-0.6,1.3-0.6,2.1c0,0.5,0.1,1,0.3,1.5
			c0.2,0.5,0.5,0.9,0.8,1.2c0.4,0.4,0.8,0.6,1.2,0.8S44.6,56.4,45.1,56.4L45.1,56.4z"/>
		<path class="st8" d="M41.5,54l3.3-1.4L42,54.9L41.5,54z"/>
		<path class="st8" d="M44.6,56.3l0.9-1.7l-0.1,1.7H44.6z"/>
		<path class="st8" d="M42.3,50l1.5,1l-1.8-0.5L42.3,50z"/>
		<path class="st7" d="M45.9,54.2c0.4,0,0.9-0.1,1.2-0.4c0.4-0.2,0.6-0.6,0.8-1c0.2-0.4,0.2-0.9,0.1-1.3c-0.1-0.4-0.3-0.8-0.6-1.1
			c-0.3-0.3-0.7-0.5-1.1-0.6c-0.4-0.1-0.9,0-1.3,0.1c-0.4,0.2-0.8,0.5-1,0.8s-0.4,0.8-0.4,1.2c0,0.6,0.2,1.2,0.7,1.6
			C44.7,53.9,45.3,54.2,45.9,54.2L45.9,54.2z"/>
		<g class="st9">
			<path class="st10" d="M33.7,42.2c-1,0-2.1-0.1-3.1-0.3l0.3-1.3c0.1,0,5.7,1.2,8.5-1.5c1.4-1.4,1.9-3.5,1.5-6.5l1.3-0.2
				c0.5,3.4-0.1,5.9-1.9,7.6S35.8,42.2,33.7,42.2z"/>
		</g>
		<path class="st11" d="M29.6,41.3c3-1.2,5.9-2.6,8-4.9c1.2-1.4,2.2-2.9,3-4.4c0.1-0.1,0.1-0.2,0.2-0.3c0.1-0.1,0.2-0.1,0.3-0.2
			c0.1,0,0.2,0,0.4,0c0.1,0,0.2,0.1,0.3,0.1c0.1,0.1,0.2,0.2,0.3,0.3c0.1,0.1,0.1,0.2,0.1,0.4c0.2,1.2,0.1,2.4-0.4,3.5
			c-1.2,3.3-4.6,5.5-7.9,6.1c-1.4,0.3-2.9,0.3-4.3,0c0,0-0.1-0.1-0.1-0.1c0,0,0-0.1,0-0.1C29.4,41.5,29.4,41.4,29.6,41.3
			C29.5,41.3,29.5,41.3,29.6,41.3L29.6,41.3z"/>
		<path class="st7" d="M26.3,61.3c0,1.8-0.1,3.9-0.3,3.7c-0.1-0.2-0.2-0.4-0.2-0.7v-0.1c-0.1-0.5-0.2-1-0.3-1.4
			c-0.2-0.7-0.4-1.4-0.7-2.1c-1.2-2.9-2.5-2.8-2.5-2.8s1.3-0.3,3.2-2.4c0.1-0.1,0.2-0.2,0.2-0.3c0.1-0.1,0.2,0,0.2,0.1
			c0.2,0.7,0.3,1.5,0.3,2.2c0,0.7,0,1.2,0,1.2S26.3,59.9,26.3,61.3z"/>
		<g class="st4">
			<path class="st5" d="M84.3,60c-0.2,0.5-0.4,0.9-0.6,1.4c-0.6,4.9-3,9.5-7.9,11.2c-0.8,0.3-1.7,0.5-2.5,0.6
				c0.6-0.3,1.1-0.6,1.6-0.9c0.9-0.5,1.7-1.1,2.4-1.7c0.1-0.1,0.2-0.2,0.3-0.3c0.1-0.1,0.2-0.2,0.3-0.3c0.2-0.2,0.4-0.4,0.7-0.7
				l0.1-0.1l0.2-0.2c0-0.1,0.1-0.1,0.2-0.2c0.1-0.1,0.2-0.2,0.3-0.3c0.1-0.1,0.1-0.1,0.2-0.2c0.1-0.1,0.2-0.3,0.3-0.5l0,0
				c0.4-0.6,0.7-1.2,0.9-1.8l0,0c0,0,0-0.1,0-0.1c0-0.1,0.1-0.2,0.1-0.3c0-0.1,0-0.1,0-0.1c0-0.1,0-0.1,0-0.2c0-0.1,0-0.2,0.1-0.3
				c0.1-0.1,0-0.1,0-0.1c0.3-1.7,0.4-3.5,0.2-5.2c-0.1-1.2-0.3-2.4-0.5-3.6c-0.1-0.3,0-0.6,0.1-0.8c0.1-0.3,0.3-0.5,0.6-0.6
				c0.2-0.1,0.5-0.2,0.7-0.1c0.1,0,0.2,0,0.3,0.1c0.2,0,0.3,0.1,0.5,0.3c0.2,0.1,0.3,0.3,0.3,0.5c0.2,0.7,0.4,1.3,0.5,2
				C84,58.5,84.2,59.2,84.3,60z"/>
		</g>
		<path class="st6" d="M82.2,62c-1.5,5.3-2.3,9.8-11.5,10.9c-0.4,0-0.9,0-1.3-0.1c8,0,11.7-10.3,9.3-20.6c0.8,0.2,1.5,0.5,2.3,0.8
			l1.1,0.2c0,0,0.1,0,0.1,0.1c0,0,0.1,0.1,0.1,0.1l0.2,7.5C82.5,60.9,82.2,61.9,82.2,62z"/>
		<path class="st7" d="M79.9,67.9c-0.2,0.4-0.5,0.7-0.7,1c-0.1,0.1-0.2,0.3-0.3,0.4h0l0.1-0.1c0-0.1,0.1-0.1,0.2-0.2
			c0.1-0.1,0.2-0.2,0.3-0.3c0.1-0.1,0.1-0.2,0.2-0.2s0.2-0.3,0.3-0.5C80,68,80,68,79.9,67.9c0.1,0,0.1,0,0.2-0.1
			c0.1-0.1,0.1-0.2,0.2-0.3s0.1-0.1,0.1-0.2c0-0.1,0.1-0.1,0.1-0.2l0.2-0.4l0.1-0.2c0-0.1,0.1-0.1,0.1-0.2c0,0,0-0.1,0-0.1
			c0-0.1,0.1-0.2,0.1-0.3c0,0,0-0.1,0-0.1c0-0.1,0-0.1,0.1-0.2c0-0.1,0-0.2,0.1-0.3C80.8,66.1,80.4,67,79.9,67.9z M77.7,70.4
			c-0.2,0.2-0.5,0.4-0.8,0.5l-0.3,0.2c0,0,0.1,0,0.1-0.1l0.3-0.2c0.1,0,0.1-0.1,0.2-0.1c0,0,0.1-0.1,0.2-0.1
			C77.6,70.6,77.6,70.5,77.7,70.4c0.1-0.1,0.2-0.2,0.3-0.3L77.7,70.4z M79.9,67.9c-0.2,0.4-0.5,0.7-0.7,1c-0.1,0.1-0.2,0.3-0.3,0.4
			h0l0.1-0.1c0-0.1,0.1-0.1,0.2-0.2c0.1-0.1,0.2-0.2,0.3-0.3c0.1-0.1,0.1-0.2,0.2-0.2s0.2-0.3,0.3-0.5C80,68,80,68,79.9,67.9
			c0.1,0,0.1,0,0.2-0.1c0.1-0.1,0.1-0.2,0.2-0.3s0.1-0.1,0.1-0.2c0-0.1,0.1-0.1,0.1-0.2l0.2-0.4l0.1-0.2c0-0.1,0.1-0.1,0.1-0.2
			c0,0,0-0.1,0-0.1c0-0.1,0.1-0.2,0.1-0.3c0,0,0-0.1,0-0.1c0-0.1,0-0.1,0.1-0.2c0-0.1,0-0.2,0.1-0.3C80.8,66.1,80.4,67,79.9,67.9z
			 M77.7,70.4c-0.2,0.2-0.5,0.4-0.8,0.5l-0.3,0.2c0,0,0.1,0,0.1-0.1l0.3-0.2c0.1,0,0.1-0.1,0.2-0.1c0,0,0.1-0.1,0.2-0.1
			C77.6,70.6,77.6,70.5,77.7,70.4c0.1-0.1,0.2-0.2,0.3-0.3L77.7,70.4z M79.9,67.9c-0.2,0.4-0.5,0.7-0.7,1c-0.1,0.1-0.2,0.3-0.3,0.4
			h0l0.1-0.1c0-0.1,0.1-0.1,0.2-0.2c0.1-0.1,0.2-0.2,0.3-0.3c0.1-0.1,0.1-0.2,0.2-0.2s0.2-0.3,0.3-0.5C80,68,80,68,79.9,67.9
			c0.1,0,0.1,0,0.2-0.1c0.1-0.1,0.1-0.2,0.2-0.3s0.1-0.1,0.1-0.2c0-0.1,0.1-0.1,0.1-0.2l0.2-0.4l0.1-0.2c0-0.1,0.1-0.1,0.1-0.2
			c0,0,0-0.1,0-0.1c0-0.1,0.1-0.2,0.1-0.3c0,0,0-0.1,0-0.1c0-0.1,0-0.1,0.1-0.2c0-0.1,0-0.2,0.1-0.3C80.8,66.1,80.4,67,79.9,67.9z
			 M77,71l-0.3,0.2c0,0,0.1,0,0.1-0.1l0.3-0.2c0.1,0,0.1-0.1,0.2-0.1c0,0,0.1-0.1,0.2-0.1c0.1-0.1,0.2-0.2,0.3-0.3
			c0.1-0.1,0.2-0.2,0.3-0.3l-0.4,0.3C77.5,70.6,77.2,70.8,77,71z M77.8,70.4c-0.2,0.2-0.5,0.4-0.8,0.6l-0.3,0.2c0,0,0.1,0,0.1-0.1
			l0.3-0.2c0.1,0,0.1-0.1,0.2-0.1c0,0,0.1-0.1,0.2-0.1C77.6,70.6,77.7,70.5,77.8,70.4c0.1-0.1,0.2-0.2,0.3-0.3L77.8,70.4z M80,67.9
			c-0.2,0.4-0.5,0.7-0.7,1c-0.1,0.1-0.2,0.3-0.3,0.4h0l0-0.1c0-0.1,0.1-0.1,0.2-0.2c0.1-0.1,0.2-0.2,0.3-0.3
			c0.1-0.1,0.1-0.2,0.2-0.2s0.2-0.3,0.3-0.5C80,68,80,68,80,67.9c0.1,0,0.1-0.1,0.1-0.1c0.1-0.1,0.1-0.2,0.2-0.3s0.1-0.1,0.1-0.2
			c0-0.1,0.1-0.1,0.1-0.2l0.2-0.4l0.1-0.2c0-0.1,0.1-0.1,0.1-0.2c0,0,0-0.1,0-0.1c0-0.1,0.1-0.2,0.1-0.3c0,0,0-0.1,0-0.1
			c0-0.1,0-0.1,0.1-0.2c0-0.1,0-0.2,0.1-0.3C80.8,66.1,80.4,67,80,67.9L80,67.9z M77.8,70.4c-0.2,0.2-0.5,0.4-0.8,0.6l-0.3,0.2
			c0,0,0.1,0,0.1-0.1l0.3-0.2c0.1,0,0.1-0.1,0.2-0.1c0,0,0.1-0.1,0.2-0.1C77.6,70.6,77.7,70.5,77.8,70.4c0.1-0.1,0.2-0.2,0.3-0.3
			L77.8,70.4z M80,67.9c-0.2,0.4-0.5,0.7-0.7,1c-0.1,0.1-0.2,0.3-0.3,0.4h0l0-0.1c0-0.1,0.1-0.1,0.2-0.2c0.1-0.1,0.2-0.2,0.3-0.3
			c0.1-0.1,0.1-0.2,0.2-0.2s0.2-0.3,0.3-0.5C80,68,80,68,80,67.9c0.1,0,0.1-0.1,0.1-0.1c0.1-0.1,0.1-0.2,0.2-0.3s0.1-0.1,0.1-0.2
			c0-0.1,0.1-0.1,0.1-0.2l0.2-0.4l0.1-0.2c0-0.1,0.1-0.1,0.1-0.2c0,0,0-0.1,0-0.1c0-0.1,0.1-0.2,0.1-0.3c0,0,0-0.1,0-0.1
			c0-0.1,0-0.1,0.1-0.2c0-0.1,0-0.2,0.1-0.3C80.8,66.1,80.4,67,80,67.9L80,67.9z M80,67.9c-0.2,0.4-0.5,0.7-0.7,1
			c-0.1,0.1-0.2,0.3-0.3,0.4h0l0-0.1c0-0.1,0.1-0.1,0.2-0.2c0.1-0.1,0.2-0.2,0.3-0.3c0.1-0.1,0.1-0.2,0.2-0.2s0.2-0.3,0.3-0.5
			C80,68,80,68,80,67.9c0.1,0,0.1-0.1,0.1-0.1c0.1-0.1,0.1-0.2,0.2-0.3s0.1-0.1,0.1-0.2c0-0.1,0.1-0.1,0.1-0.2l0.2-0.4l0.1-0.2
			c0-0.1,0.1-0.1,0.1-0.2c0,0,0-0.1,0-0.1c0-0.1,0.1-0.2,0.1-0.3c0,0,0-0.1,0-0.1c0-0.1,0-0.1,0.1-0.2c0-0.1,0-0.2,0.1-0.3
			C80.8,66.1,80.4,67,80,67.9L80,67.9z M77.8,70.4c-0.2,0.2-0.5,0.4-0.8,0.6l-0.3,0.2c0,0,0.1,0,0.1-0.1l0.3-0.2
			c0.1,0,0.1-0.1,0.2-0.1c0,0,0.1-0.1,0.2-0.1C77.6,70.6,77.7,70.5,77.8,70.4c0.1-0.1,0.2-0.2,0.3-0.3L77.8,70.4z"/>
		<path class="st7" d="M83.8,61.1c0,0.1,0,0.2,0,0.3c-0.6,4.9-3,9.5-7.9,11.2c-1.6,0.5-3.2,0.8-4.8,0.9h-0.9c-2.3,0-4.5-0.6-6.5-1.8
			s-3.5-2.9-4.6-4.9c0,0,0,0,0-0.1l-0.1-0.2c-1.5-2.6-2.4-5.5-2.4-8.6c-0.1-5.5,2.2-11.3,7.1-14.1c0.2-0.1,0.1,0,0.3-0.1
			c0.1,0,0-0.2,0.1-0.2c0.1,0.1,0.4,0.2,0.5,0.3c0.1,0.1,0.4,0.1,0.5,0.2l-0.4,0.3l-0.3,0.1c-5.3,2.4-7,7.9-6.9,13.5
			c0,3,0.8,5.9,2.2,8.5l0.1,0.2l0.1,0.2l0.2,0.4l0.1,0.2c1,1.6,2.3,2.9,3.8,3.8c1.6,0.9,3.3,1.5,5.1,1.7h0.1c0.2,0,0.3,0,0.5,0h1.2
			h0.4c1.4-0.1,2.9-0.5,4.2-1c0.3-0.2,0.7-0.3,1-0.5l0.1,0c0,0,0.1,0,0.1-0.1l0.3-0.2c0.1,0,0.1-0.1,0.2-0.1c0,0,0.1-0.1,0.2-0.1
			c0.1-0.1,0.2-0.2,0.3-0.3c0.1-0.1,0.2-0.2,0.3-0.3l-0.4,0.3l0.3-0.3c0.2-0.2,0.4-0.4,0.7-0.7h0.1l0.3-0.3c0-0.1,0.1-0.1,0.2-0.2
			c0.1-0.1,0.2-0.2,0.3-0.3c0.1-0.1,0.1-0.1,0.2-0.2c0.1-0.1,0.2-0.3,0.3-0.5c0,0,0-0.1,0.1-0.1c0,0,0-0.1,0.1-0.1
			c0.1-0.1,0.1-0.2,0.2-0.3s0.1-0.1,0.1-0.2c0-0.1,0.1-0.1,0.1-0.2l0.2-0.4l0.1-0.2c0-0.1,0.1-0.2,0.1-0.2c0,0,0-0.1,0-0.1
			c0-0.1,0.1-0.2,0.1-0.3c0,0,0-0.1,0-0.1c0-0.1,0-0.1,0-0.2c0-0.1,0-0.2,0.1-0.3c-0.3,1-0.7,1.9-1.2,2.7c0.6-0.9,1-1.9,1.3-2.9
			c0.6-2.2,0.9-4.5,0.8-6.8c0-1.1-0.2-2.3-0.4-3.4c-0.1-0.4-0.2-0.9-0.3-1.3c0-0.2-0.1-0.4-0.2-0.5c-0.2-0.6-0.4-1.2-0.7-1.7
			l1.2,0.3c0.4,0.1,0.8,0.2,1.1,0.2c0.1,0.2,0.2,0.4,0.3,0.6c0.2,0.6,0.4,1.1,0.5,1.7c0.1,0.5,0.3,1.1,0.3,1.7
			c0.1,0.6,0.1,1.2,0.2,1.8C84,58.7,83.9,59.9,83.8,61.1z"/>
		<path class="st7" d="M88.2,53.5c0,0.2-0.1,0.3-0.1,0.5c-0.1,0.1-0.2,0.3-0.3,0.4c-0.1,0.1-0.3,0.2-0.4,0.2c-0.2,0-0.3,0.1-0.5,0
			c-1.1-0.1-2.3-0.3-3.4-0.6c-0.4-0.1-0.7-0.2-1.1-0.2h-0.1l-1-0.3c-0.8-0.2-1.7-0.5-2.5-0.7c-4.5-1.5-8.7-3.8-12.4-6.7
			c-0.7-0.5-1.3-1.1-2-1.6c-0.1-0.1-0.2-0.2-0.4-0.3c-0.1-0.1-0.2-0.2-0.3-0.3c-1-0.9-1.9-1.8-2.7-2.8c-0.2-0.3,0.2-0.6,0.4-0.4
			c0.9,1,1.9,1.9,3,2.8l0.4,0.3c0.2,0.1,0.3,0.2,0.5,0.3c3.4,2.6,7.2,4.7,11.3,6.1c1.2,0.4,2.5,0.8,3.8,1.1c0.4,0.1,0.8,0.2,1.2,0.3
			c0.4,0.1,0.7,0.2,1.1,0.2c1.5,0.3,2.9,0.4,4.4,0.5c0.2,0,0.3,0,0.5,0.1c0.1,0.1,0.3,0.2,0.4,0.3c0.1,0.1,0.2,0.3,0.3,0.4
			C88.2,53.2,88.2,53.4,88.2,53.5L88.2,53.5z"/>
		<path class="st7" d="M66,65.9c0.8-0.4,1.4-1,1.9-1.7c0.4-0.7,0.7-1.6,0.6-2.5s-0.3-1.7-0.9-2.4c-0.5-0.7-1.2-1.2-2.1-1.5
			c-0.8-0.3-1.7-0.3-2.6-0.1c-0.8,0.2-1.6,0.7-2.2,1.3c-0.6,0.6-1,1.4-1.1,2.3c-0.1,0.9,0,1.7,0.4,2.5c0.2,0.5,0.6,1,1,1.4
			c0.4,0.4,0.9,0.7,1.5,0.9c0.5,0.2,1.1,0.3,1.7,0.3C64.9,66.3,65.5,66.2,66,65.9z"/>
		<path class="st1" d="M65.5,65.3c0.7-0.3,1.2-0.8,1.6-1.5c0.4-0.6,0.6-1.4,0.5-2.1c0-0.7-0.3-1.5-0.7-2.1c-0.4-0.6-1.1-1.1-1.8-1.3
			C64.5,58,63.7,58,63,58.2c-0.7,0.2-1.4,0.6-1.9,1.1c-0.5,0.6-0.8,1.2-0.9,2c-0.1,0.7,0,1.5,0.3,2.2c0.2,0.5,0.5,0.9,0.9,1.2
			c0.4,0.3,0.8,0.6,1.3,0.8c0.5,0.2,1,0.2,1.5,0.2C64.6,65.6,65.1,65.5,65.5,65.3L65.5,65.3z"/>
		<path class="st8" d="M67.8,62l-2.1,0.1l2,0.5L67.8,62z"/>
		<path class="st8" d="M65.6,65.2L63.1,62l1.4,3.6L65.6,65.2z"/>
		<path class="st8" d="M65.3,58.3l-0.7,1.5l1.1-1.3L65.3,58.3z"/>
		<path class="st7" d="M63.8,63.6c0.4-0.2,0.7-0.5,0.9-0.9c0.2-0.4,0.3-0.8,0.3-1.3c0-0.4-0.2-0.9-0.4-1.2c-0.3-0.4-0.6-0.6-1-0.8
			c-0.4-0.1-0.9-0.2-1.3-0.1c-0.4,0.1-0.8,0.3-1.1,0.7s-0.5,0.7-0.6,1.2c-0.1,0.4,0,0.9,0.2,1.3c0.1,0.3,0.3,0.5,0.5,0.7
			c0.2,0.2,0.5,0.4,0.8,0.5c0.3,0.1,0.6,0.1,0.9,0.1C63.3,63.8,63.6,63.7,63.8,63.6z"/>
		<g class="st9">
			<path class="st10" d="M75.5,41.8c-2.1,0-4.7-0.4-6.5-2.1c-1.8-1.7-2.4-4.2-1.9-7.6l1.3,0.2c-0.5,2.9,0,5.1,1.5,6.4
				c2.8,2.7,8.4,1.5,8.5,1.5l0.3,1.3C77.5,41.7,76.5,41.8,75.5,41.8L75.5,41.8z"/>
		</g>
		<path class="st11" d="M79.6,41.4c-4.7,0.8-10.5-1.4-12.2-6.2c-0.4-1.1-0.5-2.3-0.4-3.5c0-0.2,0.1-0.3,0.2-0.5
			c0.1-0.1,0.3-0.2,0.5-0.2c0.2,0,0.4,0,0.5,0.1c0.2,0.1,0.3,0.2,0.4,0.4c0.9,1.9,2.2,3.6,3.6,5.1c2.2,1.9,4.7,3.4,7.4,4.3
			c0.1,0,0.1,0.1,0.1,0.1c0,0,0,0.1,0,0.2c0,0.1,0,0.1-0.1,0.2C79.7,41.3,79.7,41.3,79.6,41.4L79.6,41.4z"/>
		<path class="st7" d="M86.6,57.7c0,0-1.1-0.1-2.2,2.2c-0.2,0.4-0.4,0.9-0.6,1.4c-0.3,0.9-0.5,1.9-0.7,2.9c-0.3,1.5-0.4,0.2-0.4-1.4
			c0-1.7,0-4.2,0-4.2s0-1.7,0.2-2.8c0-0.3,0.1-0.6,0.2-0.8c0,0,0.1,0,0.1,0c0.2,0.3,0.4,0.5,0.6,0.7C84.5,56.7,85.5,57.3,86.6,57.7
			L86.6,57.7z"/>
		<path class="st7" d="M59.9,66.8l-0.1-0.2l-0.1-0.2C59.8,66.5,59.8,66.6,59.9,66.8z"/>
		<path class="st7" d="M49.8,66.2C49.8,66.2,49.8,66.2,49.8,66.2c0,0.2-0.1,0.3-0.2,0.4L49.8,66.2L49.8,66.2z"/>
	</g>
</g>
</svg>
