<svg xmlns:xlink="http://www.w3.org/1999/xlink" xmlns="http://www.w3.org/2000/svg" width="166" height="166" viewBox="0 0 166 166" fill="none">
<circle cx="83" cy="83" r="81.8933" fill="white" stroke="black" stroke-width="2.21333"/>
<path d="M69.7227 87.1756C75.9127 87.3966 79.8198 91.0213 80.4784 97.3866H85.527C86.1855 91.0655 90.0926 87.3966 96.2827 87.1756L94.9656 81.4291C90.4438 81.8269 86.7562 84.656 85.527 88.2364V66.3999H80.4784V88.2364C79.9076 86.4241 78.7223 84.9212 77.0102 83.6393C75.2981 82.3574 73.2786 81.6501 71.0397 81.4291L69.7227 87.1756Z" fill="#009A66"/>
<path d="M117.566 100.643C117.549 101.949 117.383 103.25 117.07 104.518C116.829 105.493 116.506 106.445 116.103 107.364C114.846 110.205 112.841 112.652 110.303 114.443C107.765 116.234 104.788 117.303 101.69 117.536V117.536C98.7194 117.754 95.7434 117.196 93.0537 115.917C90.364 114.637 88.0531 112.681 86.3478 110.239H85.7635C75.5831 110.205 66.588 105.741 63.1875 103.333C60.5684 103.792 57.8773 103.619 55.3386 102.828C52.7999 102.037 50.4871 100.65 48.5928 98.7837C46.6986 96.9174 45.2778 94.6254 44.4488 92.0988C43.6198 89.5721 43.4066 86.8839 43.8271 84.2582C43.8986 83.8084 43.991 83.3587 44.1003 82.909C44.5456 81.0813 45.2989 79.3429 46.3281 77.7683C47.135 76.5339 48.1066 75.4154 49.2157 74.4435C49.5856 74.1072 49.9765 73.792 50.3759 73.4935C51.9543 72.3253 53.7255 71.4433 55.609 70.8875C56.8716 70.5172 58.1742 70.2999 59.4886 70.2402V70.2402L59.5433 70.1645C62.8849 65.5409 70.371 63.5359 70.371 63.5359C68.6392 58.2607 73.9438 59.051 73.9438 59.051C71.0015 49.3834 76.6844 41.8678 83.8216 43.4987C90.9588 45.1296 91.8079 54.2802 91.8079 54.2802C91.8079 54.2802 97.2049 42.7884 107.163 49.459C111.652 52.4644 110.433 60.2741 107.293 65.0113C105.857 67.1828 103.919 68.9764 101.644 70.2402C102.165 70.6857 102.657 71.1341 103.119 71.5852C103.438 71.8963 103.749 72.2073 104.048 72.5226C110.319 79.1386 111.08 85.8134 111.168 86.9231C111.168 87.024 111.168 87.0786 111.168 87.0786C112.055 87.7924 112.868 88.5937 113.594 89.4703V89.4703C114.864 90.993 115.86 92.7254 116.536 94.5899C116.739 95.1406 116.911 95.7018 117.053 96.2713C117.413 97.7 117.585 99.1695 117.566 100.643Z" fill="#009A66"/>
<path d="M111.17 86.9063C108.72 85.6453 105.517 83.9934 105.517 83.9934L104.02 80.7485L101.318 77.2555L98.7326 74.7335L94.2939 71.6147L89.9981 69.5971L84.7271 68.0503L79.7294 67.7266L74.2188 67.5501L68.7545 69.017L66.4301 70.0931L64.5554 71.2238L59.5703 70.1435C62.933 65.5199 70.398 63.5191 70.398 63.5191C68.6621 58.2439 73.9709 59.03 73.9709 59.03C71.0285 49.3624 76.7072 41.8468 83.8486 43.4777C90.9901 45.1086 91.8349 54.2634 91.8349 54.2634C91.8349 54.2634 97.232 42.7674 107.19 49.4422C111.675 52.4476 110.456 60.2531 107.32 64.9945C105.88 67.1754 103.933 68.9752 101.645 70.2402C110.145 77.5035 111.073 85.6748 111.17 86.9063Z" fill="#F99FB7"/>
<path opacity="0.35" d="M116.104 107.364C114.874 110.147 112.926 112.553 110.459 114.335C107.992 116.117 105.096 117.211 102.067 117.504C99.0375 117.797 95.9851 117.279 93.2223 116.003C90.4596 114.727 88.086 112.739 86.3451 110.243C75.9335 110.378 66.661 105.792 63.2016 103.341C60.5822 103.799 57.8915 103.624 55.3532 102.832C52.8149 102.04 50.5024 100.653 48.6083 98.7865C46.7141 96.9202 45.293 94.6287 44.4631 92.1025C43.6332 89.5762 43.4185 86.8883 43.837 84.2624C51.5501 86.9147 66.5349 90.5422 77.8292 83.8967C80.2166 82.4886 82.3393 85.0022 82.3393 85.0022C82.3393 85.0022 86.4123 99.7222 116.104 107.364Z" fill="white"/>
<path d="M92.707 65.5448C92.707 65.5448 94.5355 56.3942 99.5542 57.9788C105.321 59.8157 97.9696 68.2307 97.9696 68.2307L92.707 65.5448Z" fill="#E9788A"/>
<path d="M80.8542 62.7203C80.8542 62.7203 77.1973 55.6083 81.7159 54.5827C88.2688 53.0906 87.0793 63.6661 87.0793 63.6661L80.8542 62.7203Z" fill="#E9788A"/>
<path d="M77.7525 66.9697C79.1146 67.028 80.4719 67.1684 81.8171 67.3901L80.3922 72.392C80.2485 72.9002 79.9109 73.3315 79.4522 73.5931C78.9935 73.8547 78.4503 73.9256 77.9398 73.7906C77.4293 73.6555 76.9923 73.3253 76.723 72.871C76.4536 72.4168 76.3735 71.8749 76.4999 71.3622V71.2907L77.7525 66.9697Z" fill="#E4FF93"/>
<path d="M85.9252 68.3611C86.5767 68.5544 87.1862 68.7562 87.7999 68.9579L86.2909 74.2751C86.1358 74.7713 85.7951 75.1884 85.3399 75.4396C84.8848 75.6907 84.3502 75.7564 83.8478 75.6231C83.3453 75.4898 82.9137 75.1676 82.6429 74.7238C82.3722 74.2801 82.2831 73.7489 82.3944 73.2411V73.1696L83.9118 67.8398C84.5717 67.987 85.2359 68.1593 85.9252 68.3611Z" fill="#E4FF93"/>
<path d="M89.7702 69.6729C91.233 70.2445 92.4813 70.8161 93.4859 71.3121L92.0694 75.9652C91.914 76.4655 91.5702 76.8858 91.1105 77.1371C90.6508 77.3884 90.1114 77.4511 89.6064 77.3118C89.1014 77.1726 88.6703 76.8424 88.4043 76.3911C88.1384 75.9397 88.0584 75.4026 88.1813 74.8934C88.1892 74.855 88.199 74.8172 88.2108 74.7799L89.7702 69.6729Z" fill="#E4FF93"/>
<path d="M55.9198 78.6088C55.7692 79.1014 55.4356 79.5175 54.9876 79.7716C54.5396 80.0257 54.0113 80.0985 53.5113 79.9749L53.402 79.9455L46.332 77.7724C47.1394 76.5383 48.1093 75.4186 49.2155 74.4434L54.5915 76.091C55.1008 76.2499 55.5265 76.6039 55.7754 77.0758C56.0243 77.5476 56.0762 78.0988 55.9198 78.6088V78.6088Z" fill="#E4FF93"/>
<path d="M116.544 94.5775L110.24 92.6524C109.739 92.497 109.319 92.1531 109.068 91.6935C108.816 91.2338 108.754 90.6945 108.893 90.1894C109.032 89.6844 109.362 89.2533 109.814 88.9873C110.265 88.7214 110.802 88.6414 111.311 88.7644L111.421 88.7938L113.585 89.4579C114.859 90.9817 115.86 92.7136 116.544 94.5775V94.5775Z" fill="#EEAF7A"/>
<path d="M117.575 100.647L107.76 97.6332C107.245 97.4911 106.807 97.1502 106.544 96.6855C106.28 96.2208 106.212 95.6704 106.354 95.1554C106.496 94.6403 106.837 94.2029 107.302 93.9392C107.766 93.6755 108.317 93.6072 108.832 93.7494L108.941 93.7788L117.066 96.2713C117.424 97.7017 117.595 99.1726 117.575 100.647V100.647Z" fill="#EEAF7A"/>
<path d="M56.9442 73.3969C56.7945 73.8893 56.4619 74.3058 56.0148 74.5606C55.5676 74.8154 55.0398 74.8894 54.5399 74.7672L54.4264 74.7336L50.3828 73.4726C51.9601 72.3015 53.7316 71.4178 55.6159 70.8623C55.8706 70.9399 56.1074 71.0673 56.3124 71.2371C56.5175 71.407 56.6867 71.6159 56.8103 71.8517C56.9339 72.0876 57.0093 72.3456 57.0323 72.6109C57.0553 72.8762 57.0254 73.1433 56.9442 73.3969V73.3969Z" fill="#E4FF93"/>
<path d="M100.448 118.847C97.5898 118.849 94.7705 118.187 92.2123 116.912C89.6541 115.638 87.427 113.786 85.7068 111.504C75.6483 111.454 66.6869 107.196 62.9039 104.665C60.6147 105.003 58.2816 104.89 56.0357 104.333C51.901 103.314 48.2629 100.859 45.7708 97.4063C43.2788 93.9533 42.0951 89.7269 42.431 85.4818C42.7668 81.2367 44.6004 77.2491 47.6045 74.2309C50.6085 71.2127 54.5874 69.3603 58.8309 69.0044C61.6597 65.4274 66.5944 63.435 68.86 62.6658C68.6078 61.2156 68.86 60.0387 69.604 59.1518C70.3095 58.3747 71.2789 57.8878 72.3235 57.7857C71.2306 52.7796 72.231 48.0887 75.1103 45.0035C76.2252 43.7796 77.6497 42.8794 79.2337 42.3978C80.8176 41.9161 82.5021 41.871 84.1096 42.2671C89.2334 43.4525 91.4528 47.8869 92.3985 50.9974C93.7268 49.274 95.8242 47.2396 98.6783 46.4494C101.621 45.634 104.702 46.2939 107.862 48.4082C113.264 52.0272 111.612 60.7701 108.342 65.6922C107.104 67.5352 105.536 69.134 103.718 70.4083C110.864 77.1882 112.15 84.3549 112.373 86.4355C114.955 88.6586 116.873 91.5519 117.916 94.7962C118.958 98.0405 119.083 101.51 118.278 104.821C117.294 108.815 115.002 112.365 111.767 114.907C108.532 117.449 104.541 118.836 100.427 118.847H100.448ZM86.9973 108.974L87.3798 109.52C88.6836 111.385 90.3728 112.949 92.333 114.105C94.2933 115.26 96.479 115.982 98.7421 116.22C101.005 116.458 103.293 116.208 105.451 115.485C107.609 114.763 109.587 113.585 111.25 112.032C112.914 110.479 114.224 108.587 115.094 106.484C115.963 104.381 116.37 102.115 116.288 99.8413C116.206 97.5671 115.636 95.337 114.618 93.3019C113.599 91.2669 112.156 89.4743 110.384 88.0454L109.594 87.4065L109.893 86.8138C109.729 85.2586 108.556 77.8061 100.822 71.1817L99.3718 69.9207L101.087 69.08C103.155 67.9069 104.919 66.2641 106.236 64.2841C108.913 60.2573 110.288 53.0612 106.454 50.4888C103.932 48.8075 101.549 48.2568 99.3592 48.8621C95.261 49.9928 92.9618 54.7468 92.9407 54.8056L90.9652 58.9711L90.5449 54.3811C90.5449 54.3012 89.7042 46.1342 83.5379 44.7135C82.3594 44.4118 81.1207 44.4397 79.957 44.794C78.7933 45.1483 77.7492 45.8155 76.9387 46.7226C74.4168 49.4296 73.7232 54.007 75.1397 58.66L75.7198 60.5683L73.7484 60.2783C73.223 60.2026 71.9746 60.2279 71.5165 60.7785C71.1802 61.1988 71.1928 62.0143 71.5585 63.1239L71.9788 64.3849L70.6884 64.7296C70.617 64.7296 63.5428 66.6884 60.5206 70.9253L60.1759 71.4423L59.5412 71.4759C55.8389 71.6578 52.3258 73.1663 49.6444 75.7256C46.963 78.2849 45.2925 81.7239 44.9384 85.4137C44.5843 89.1035 45.5703 92.7975 47.7161 95.8201C49.8619 98.8426 53.024 100.992 56.6241 101.874C58.7013 102.39 60.8634 102.464 62.9711 102.093L63.4881 102L63.9085 102.303C67.2711 104.669 76.2452 109.104 86.3121 108.974H86.9973Z" fill="#0A0A0A"/>
<path d="M102.484 83.0264C105.326 83.2415 108.084 84.0904 110.555 85.5105C111.395 85.9865 112.164 86.5795 112.837 87.2717C113.012 87.465 113.11 87.7162 113.11 87.977C113.111 88.2378 113.015 88.4896 112.842 88.684C112.668 88.8783 112.428 89.0013 112.169 89.0292C111.909 89.0572 111.649 88.9881 111.437 88.8353C108.642 86.6202 105.843 84.3714 102.484 83.0264V83.0264Z" fill="#0A0A0A"/>
<path d="M68.4188 72.0181C64.9637 71.5978 61.4749 71.2447 58.045 71.5515C57.7663 71.5917 57.4831 71.5195 57.2577 71.3508C57.0322 71.1821 56.883 70.9307 56.8429 70.652C56.8027 70.3733 56.875 70.0901 57.0437 69.8647C57.2123 69.6392 57.4637 69.49 57.7424 69.4499C59.6801 69.1052 61.5254 69.4961 63.3538 70.0047C65.0958 70.5037 66.785 71.1709 68.3978 71.9971L68.4188 72.0181Z" fill="#0A0A0A"/>
<path d="M105.752 84.5566C105.625 84.557 105.501 84.5191 105.396 84.4479C105.291 84.3766 105.21 84.2754 105.164 84.1573C105.122 84.0522 100.855 73.5188 87.8798 69.5592C73.2775 65.1037 65.8839 71.3625 65.8124 71.4255C65.75 71.4807 65.6774 71.5231 65.5986 71.5502C65.5199 71.5773 65.4366 71.5887 65.3534 71.5836C65.2703 71.5785 65.189 71.5571 65.1141 71.5206C65.0392 71.4841 64.9723 71.4332 64.9171 71.3709C64.8619 71.3085 64.8195 71.2359 64.7924 71.1571C64.7653 71.0784 64.7539 70.995 64.759 70.9119C64.7641 70.8288 64.7855 70.7474 64.822 70.6726C64.8585 70.5977 64.9094 70.5308 64.9717 70.4756C65.2912 70.1939 72.958 63.6956 88.2329 68.3739C101.814 72.5184 106.147 83.262 106.307 83.716C106.34 83.7945 106.358 83.8788 106.358 83.9641C106.357 84.0493 106.34 84.1337 106.307 84.2122C106.274 84.2906 106.225 84.3616 106.163 84.4207C106.102 84.4799 106.029 84.5262 105.95 84.5566C105.884 84.5672 105.818 84.5672 105.752 84.5566V84.5566Z" fill="#0A0A0A"/>
<path d="M100.8 70.837C100.647 70.8404 100.497 70.7881 100.38 70.6899C100.249 70.5806 86.9038 59.6941 69.5399 64.4312C69.3783 64.4752 69.2057 64.4532 69.0603 64.3701C68.9149 64.2869 68.8084 64.1494 68.7644 63.9877C68.7204 63.8261 68.7423 63.6536 68.8255 63.5082C68.9087 63.3627 69.0462 63.2563 69.2078 63.2122C87.2232 58.3028 101.052 69.6055 101.187 69.719C101.286 69.8036 101.357 69.9169 101.39 70.0434C101.423 70.1699 101.415 70.3035 101.369 70.4258C101.324 70.5481 101.241 70.6532 101.133 70.7268C101.025 70.8004 100.897 70.8389 100.766 70.837H100.8Z" fill="#0A0A0A"/>
<path d="M70.3775 63.5148C71.3275 64.7464 72.3741 64.843 72.6221 64.8514V64.8767C72.2564 65.0868 70.0035 66.5034 72.4876 68.5125C75.1819 70.6899 77.0272 67.3944 77.0272 67.3944C77.0272 67.3944 77.8889 69.7189 80.8984 69.1472C83.908 68.5756 82.2981 64.7758 82.2981 64.7758C82.2981 64.7758 85.2152 63.4601 84.4334 61.1147C83.6516 58.7692 80.89 59.488 80.89 59.488C80.89 59.488 80.5916 56.1926 78.4353 55.8564C75.3248 55.3688 73.9504 59.0172 73.9504 59.0172C73.9504 59.0172 70.9282 58.4246 70.2136 60.5725C69.4991 62.7204 70.3775 63.5148 70.3775 63.5148Z" fill="white"/>
<path d="M74.3179 70.1014C73.4484 70.0749 72.6156 69.7447 71.9641 69.1683C70.9049 68.3276 70.4173 67.3945 70.5139 66.4404C70.5726 65.9251 70.7866 65.4398 71.1276 65.0491C70.6495 64.7985 70.2034 64.4908 69.7994 64.1327C69.6397 63.9814 68.5636 62.8717 69.4127 60.3035C70.0474 58.3952 72.0524 58.0253 73.4394 58.1178C74.2087 56.6214 75.9614 54.6291 78.5633 55.0368C80.543 55.3478 81.2996 57.3654 81.5771 58.555C82.8675 58.4919 84.5866 58.9248 85.2297 60.8626C85.9023 62.8844 84.5194 64.4059 83.3214 65.1836C83.561 66.0242 83.7922 67.3945 83.1995 68.5084C82.9822 68.9021 82.676 69.2397 82.3053 69.4943C81.9347 69.749 81.5097 69.9137 81.0643 69.9753C79.0845 70.3536 77.7562 69.6517 76.9828 68.8404C76.4335 69.4464 75.7093 69.8665 74.9106 70.0426C74.7157 70.083 74.517 70.1027 74.3179 70.1014ZM70.9553 62.9222C71.4119 63.3674 71.9317 63.7427 72.4979 64.0361L73.679 64.7044L72.8846 65.419C72.5129 65.7193 72.2609 66.1427 72.1742 66.6127C72.1406 66.9574 72.4349 67.3987 73.0149 67.8737C73.2185 68.0747 73.4649 68.227 73.7357 68.3195C74.0064 68.4119 74.2945 68.442 74.5785 68.4075C75.4192 68.252 76.1001 67.3357 76.2935 66.9994L77.0963 65.8015L77.8109 67.1213C77.8739 67.281 78.5339 68.7564 80.7532 68.336C80.9508 68.321 81.1419 68.2586 81.3102 68.1539C81.4785 68.0493 81.6191 67.9056 81.72 67.735C82.1403 66.9574 81.72 65.5577 81.5266 65.1289L81.2072 64.3765L81.9554 64.0361C82.0436 63.994 84.1663 62.9978 83.6367 61.4048C83.1071 59.8117 81.3038 60.2783 81.1147 60.3287L80.1647 60.5641L80.0723 59.589C80.0723 59.5637 79.7822 56.9367 78.3237 56.7097C75.9404 56.3398 74.8013 59.2317 74.7551 59.341L74.5029 60.0051L73.8051 59.8664C73.8051 59.8664 71.4975 59.446 71.0267 60.8499C70.556 62.2538 70.9049 62.8171 70.9805 62.9222H70.9553Z" fill="#0A0A0A"/>
<path d="M77.3035 64.3722C78.3017 64.3722 79.1109 63.563 79.1109 62.5647C79.1109 61.5665 78.3017 60.7573 77.3035 60.7573C76.3053 60.7573 75.4961 61.5665 75.4961 62.5647C75.4961 63.563 76.3053 64.3722 77.3035 64.3722Z" fill="#FFCE67"/>
<path d="M72.055 84.8551C73.0648 84.8551 73.8834 84.0365 73.8834 83.0267C73.8834 82.0169 73.0648 81.1982 72.055 81.1982C71.0452 81.1982 70.2266 82.0169 70.2266 83.0267C70.2266 84.0365 71.0452 84.8551 72.055 84.8551Z" fill="#0A0A0A"/>
<path d="M88.8137 89.6593C88.7144 89.659 88.6165 89.6353 88.5281 89.59C88.4398 89.5447 88.3633 89.4792 88.3051 89.3987C87.8133 88.7262 86.2959 87.9108 85.7537 87.6544L84.707 87.1626L85.6864 86.5489C86.2688 86.1938 86.9202 85.967 87.5972 85.8836C88.2742 85.8002 88.9612 85.8623 89.6123 86.0655C89.77 86.1213 89.8992 86.2374 89.9713 86.3883C90.0434 86.5393 90.0526 86.7127 89.9969 86.8704C89.9412 87.0282 89.825 87.1573 89.6741 87.2295C89.5231 87.3016 89.3497 87.3108 89.192 87.255C88.6469 87.0897 88.0695 87.0608 87.5106 87.171C88.2037 87.5507 88.8208 88.0551 89.3307 88.659C89.4288 88.7935 89.4697 88.9613 89.4445 89.1259C89.4193 89.2905 89.33 89.4384 89.1962 89.5374C89.0847 89.6173 88.9508 89.66 88.8137 89.6593V89.6593Z" fill="#0A0A0A"/>
<path d="M82.2749 88.932C82.2749 88.932 81.5645 95.9725 77.1385 94.6863C72.7124 93.4001 75.8775 86.8472 75.8775 86.8472L77.1973 87.1708H78.7399C78.7399 87.1708 79.6815 87.6164 79.7823 87.6836C79.8832 87.7509 81.2241 88.6336 81.2661 88.6294C81.3081 88.6252 82.2749 88.932 82.2749 88.932Z" fill="#F5ADB8"/>
<path d="M81.9819 89.5753C81.3802 89.5552 80.7913 89.3969 80.2606 89.1127C79.73 88.8284 79.2719 88.4257 78.9219 87.936C78.1448 88.2303 77.2878 88.2352 76.5075 87.9496C75.7272 87.664 75.0758 87.1071 74.6723 86.3808C74.5953 86.2368 74.577 86.0686 74.6215 85.9115C74.6659 85.7544 74.7695 85.6207 74.9106 85.5384C75.0516 85.4562 75.2191 85.4319 75.3777 85.4706C75.5363 85.5094 75.6737 85.6081 75.761 85.7461C75.9055 86.0084 76.1013 86.239 76.3367 86.4241C76.5722 86.6093 76.8425 86.7451 77.1316 86.8235C77.4206 86.902 77.7225 86.9214 78.0193 86.8807C78.316 86.84 78.6015 86.7401 78.8588 86.5867L79.4095 86.2925L79.7079 86.8431C79.8256 87.0575 80.9269 88.9448 82.9739 88.1041C83.0509 88.0735 83.1332 88.0583 83.216 88.0595C83.2989 88.0606 83.3807 88.0781 83.4568 88.1109C83.5329 88.1437 83.6018 88.1911 83.6596 88.2506C83.7174 88.31 83.7629 88.3802 83.7935 88.4572C83.8241 88.5342 83.8393 88.6165 83.8381 88.6993C83.837 88.7822 83.8195 88.864 83.7867 88.9401C83.7539 89.0162 83.7065 89.0852 83.6471 89.1429C83.5876 89.2007 83.5174 89.2462 83.4404 89.2768C82.9776 89.4681 82.4826 89.5694 81.9819 89.5753Z" fill="#0A0A0A"/>
<path d="M79.9224 85.9228C80.4145 85.9228 80.8135 85.5239 80.8135 85.0317C80.8135 84.5396 80.4145 84.1406 79.9224 84.1406C79.4302 84.1406 79.0312 84.5396 79.0312 85.0317C79.0312 85.5239 79.4302 85.9228 79.9224 85.9228Z" fill="#0A0A0A"/>
<path d="M78.1974 95.46C77.7844 95.456 77.374 95.3938 76.9785 95.275C76.4473 95.1427 75.9531 94.8916 75.533 94.5407C75.1129 94.1898 74.7779 93.7481 74.5532 93.249C73.3888 90.6304 75.2551 86.7213 75.335 86.5532C75.408 86.4027 75.5378 86.2873 75.6958 86.2325C75.8539 86.1778 76.0272 86.188 76.1777 86.261C76.3282 86.334 76.4436 86.4639 76.4983 86.6219C76.5531 86.78 76.5429 86.9533 76.4699 87.1038C76.4699 87.1416 74.7885 90.6556 75.7091 92.7362C75.8779 93.0564 76.1094 93.3392 76.3899 93.5679C76.6705 93.7965 76.9942 93.9663 77.3417 94.0672C77.6893 94.168 78.0536 94.1977 78.413 94.1547C78.7723 94.1116 79.1193 93.9966 79.4332 93.8165C81.2616 92.5849 81.661 88.8902 81.661 88.8524C81.6777 88.6852 81.7601 88.5314 81.8902 88.425C82.0203 88.3186 82.1873 88.2682 82.3545 88.2849C82.5217 88.3016 82.6754 88.3841 82.7819 88.5142C82.8883 88.6442 82.9387 88.8113 82.9219 88.9785C82.9219 89.155 82.4638 93.2995 80.1436 94.8631C79.5703 95.2547 78.8916 95.4628 78.1974 95.46Z" fill="#0A0A0A"/>
<path d="M90.0867 65.0365C89.9202 65.0332 89.7618 64.9642 89.646 64.8445C89.5303 64.7248 89.4666 64.5641 89.4688 64.3976C89.4688 64.1622 89.5739 58.576 91.2258 54.0617C91.2898 53.9158 91.4066 53.7996 91.5528 53.7364C91.699 53.6731 91.8637 53.6676 92.0139 53.7208C92.164 53.7741 92.2884 53.8821 92.3621 54.0234C92.4358 54.1646 92.4533 54.3284 92.4111 54.482C90.8307 58.7946 90.7298 64.3472 90.7298 64.4018C90.7298 64.4859 90.7131 64.5691 90.6807 64.6467C90.6483 64.7242 90.6008 64.7946 90.5409 64.8536C90.4811 64.9127 90.4101 64.9592 90.3322 64.9906C90.2542 65.022 90.1707 65.0376 90.0867 65.0365V65.0365Z" fill="#0A0A0A"/>
<path d="M45.4155 80.1975C45.2675 80.1959 45.1225 80.1553 44.9952 80.0798C43.1163 78.9533 40.0184 78.2808 39.989 78.2724C39.8793 78.251 39.7749 78.2081 39.6819 78.1459C39.589 78.0838 39.5094 78.0037 39.4478 77.9104C39.3862 77.8171 39.3438 77.7125 39.3231 77.6026C39.3024 77.4927 39.3039 77.3798 39.3273 77.2705C39.3508 77.1612 39.3959 77.0577 39.4599 76.966C39.5238 76.8743 39.6055 76.7963 39.7 76.7366C39.7945 76.6768 39.8999 76.6365 40.0102 76.618C40.1204 76.5995 40.2333 76.6032 40.3421 76.6289C40.4766 76.6583 43.7426 77.3644 45.8611 78.638C46.0169 78.7325 46.1378 78.875 46.2056 79.0441C46.2734 79.2133 46.2844 79.3998 46.237 79.5757C46.1896 79.7517 46.0863 79.9074 45.9427 80.0196C45.799 80.1317 45.6229 80.1941 45.4407 80.1975H45.4155Z" fill="#0A0A0A"/>
<path d="M44.1105 83.754C44.035 83.7549 43.9597 83.7435 43.8878 83.7204C41.9472 83.2134 39.9355 83.0344 37.9359 83.1908C37.7129 83.2147 37.4896 83.1491 37.315 83.0084C37.1404 82.8677 37.0288 82.6634 37.0048 82.4405C36.9809 82.2175 37.0465 81.9942 37.1872 81.8196C37.3279 81.645 37.5322 81.5334 37.7551 81.5094C39.9665 81.3292 42.1925 81.5268 44.3375 82.0937C44.5346 82.1473 44.7055 82.2707 44.8183 82.4411C44.931 82.6115 44.9778 82.817 44.95 83.0194C44.9222 83.2218 44.8216 83.4071 44.6672 83.5407C44.5127 83.6744 44.3148 83.7472 44.1105 83.7456V83.754Z" fill="#0A0A0A"/>
<path d="M123.174 105.128C123.044 105.129 122.916 105.099 122.8 105.04C121.93 104.619 119.294 103.581 117.554 104.006C117.337 104.058 117.109 104.022 116.918 103.906C116.728 103.79 116.592 103.602 116.539 103.386C116.487 103.169 116.523 102.94 116.639 102.75C116.755 102.559 116.942 102.423 117.159 102.37C119.853 101.715 123.401 103.463 123.548 103.535C123.718 103.619 123.854 103.759 123.934 103.93C124.015 104.101 124.035 104.295 123.992 104.479C123.948 104.664 123.844 104.828 123.696 104.946C123.547 105.064 123.363 105.128 123.174 105.128Z" fill="#0A0A0A"/>
<path d="M121.815 110.617C121.69 110.617 121.565 110.589 121.452 110.534C121.338 110.479 121.238 110.4 121.16 110.302C121.122 110.251 119.205 107.923 116.259 107.654C116.036 107.633 115.83 107.525 115.687 107.352C115.544 107.18 115.475 106.958 115.496 106.735C115.516 106.512 115.625 106.307 115.797 106.164C115.969 106.021 116.191 105.952 116.414 105.972C120.105 106.317 122.379 109.129 122.475 109.247C122.544 109.333 122.595 109.433 122.625 109.539C122.655 109.645 122.664 109.756 122.651 109.866C122.638 109.976 122.603 110.082 122.55 110.178C122.496 110.275 122.423 110.359 122.337 110.428C122.191 110.55 122.006 110.617 121.815 110.617Z" fill="#0A0A0A"/>
</svg>